<svg xmlns="http://www.w3.org/2000/svg" viewBox="0 0 1444 678.91"><defs><filter id="drop-shadow-1" width="803" height="280" x="19" y="-2.07" filterUnits="userSpaceOnUse"><feOffset dx="7" dy="7"/><feGaussianBlur result="blur" stdDeviation="3"/><feFlood flood-color="#e4007f" flood-opacity=".75"/><feComposite in2="blur" operator="in"/><feComposite in="SourceGraphic"/></filter><filter id="drop-shadow-2" width="1444" height="279" x="0" y="255.93" filterUnits="userSpaceOnUse"><feOffset dx="7" dy="7"/><feGaussianBlur result="blur1" stdDeviation="3"/><feFlood flood-color="#e4007f" flood-opacity=".75"/><feComposite in2="blur1" operator="in"/><feComposite in="SourceGraphic"/></filter><style>.st1{fill:#fff}.st2{fill:#f39800}.st4{display:none}.st5{fill:#e4007f}</style></defs><g><g style="filter:url(#drop-shadow-1)"><path d="M101.57 251.4a10 10 0 0 1-10-9.68c-.46-14.3-.99-34.68-1.57-60.69a6020.44 6020.44 0 0 0-47.83 1.76 10 10 0 0 1-10-9.73c-.5-18.43-.76-46.43-.76-83.22a10 10 0 0 1 10.5-9.98l34.53 1.76 11.39-.68a2394.4 2394.4 0 0 1-.36-35.13 10 10 0 0 1 10-10h43.78a10 10 0 0 1 10 10v31.7l63.2-3.29h.53a10 10 0 0 1 10 9.7c.84 28.67 1.1 57.83.76 86.68a10 10 0 0 1-10.33 9.88l-54.23-1.78c-7.46.2-13.86.4-19.15.59v60.82a10 10 0 0 1-9.58 10L102 251.39h-.42Zm58.81-110.77c-.22-8.58-.36-17.16-.42-25.68h-17.93v25.44l18.35.24Zm-71.43-1.04c-.18-6.76-.36-14.93-.54-24.64H75.88c.1 8.61.05 16.78-.11 24.44l13.18.2Z" class="st1"/><path d="M141.25 45.81v42.24l73.73-3.84c.85 28.67 1.1 57.43.76 86.27l-54.52-1.79c-12.98.34-22.7.69-29.19 1.02v70.4l-30.46 1.29a7334.1 7334.1 0 0 1-1.8-70.66c-12.8.34-32 1.02-57.6 2.05-.5-18.44-.76-46.08-.76-82.95l35.07 1.8 21.5-1.29c-.34-19.8-.5-34.64-.5-44.54h43.77m29.44 104.96c-.51-15.36-.77-30.63-.77-45.82h-37.89v45.3l38.66.52m-71.43-1.02c-.34-9.73-.68-24.66-1.02-44.8H65.73a749.2 749.2 0 0 1-.26 44.28l33.8.52M141.24 25.8H97.47a20 20 0 0 0-20 20c0 6.53.07 15.14.22 25.72l-1.3.07-33.96-1.73a20.05 20.05 0 0 0-14.8 5.47 20 20 0 0 0-6.22 14.5c0 36.88.26 64.98.77 83.5a20 20 0 0 0 20.8 19.43 7168.5 7168.5 0 0 1 37.25-1.4c.5 21.25.95 38.25 1.35 50.67a20 20 0 0 0 20.83 19.34l30.46-1.28a20 20 0 0 0 19.16-19.99v-51.15l9.12-.26 53.94 1.77a20.05 20.05 0 0 0 14.48-5.53 20 20 0 0 0 6.17-14.22c.34-28.99.08-58.3-.77-87.1a20 20 0 0 0-21.04-19.38l-52.68 2.74V45.81a20 20 0 0 0-20-20Z" class="st2"/><path d="M346.22 238.25a10 10 0 0 1-10-9.72l-.2-7.4-96.3 14.88a10 10 0 0 1-11.53-9.63l-2.12-84.94a10 10 0 0 1 10-10.25l24.75.42a10 10 0 0 1 9.82 10.3 4247.4 4247.4 0 0 1-1.85 48.53l5.08-.42 1.35-90.08a10 10 0 0 1 10.68-9.82l33.9 2.33a10 10 0 0 1 9.29 10.56l-4.85 83.13c3.55-.26 7.1-.52 10.66-.8l-1.43-50.43a10 10 0 0 1 9.72-10.28l38.77-1.06h.27a10 10 0 0 1 10 10.45l-4.24 92.57a10 10 0 0 1-9.33 9.52l-31.77 2.12-.67.02Z" class="st1"/><path d="m285.22 100.1 33.89 2.32-5.51 94.48c10.6-.7 21.11-1.48 31.56-2.33l-1.7-59.95 38.77-1.06-4.23 92.57-31.78 2.12-.85-30.71-5.72 12.92-101.46 15.67-2.12-84.94 24.57.42c-.42 13.98-1.2 33.9-2.33 59.74l25.42-2.12 1.49-99.14M285.2 80.1a20 20 0 0 0-20 19.7l-.33 22.28a20 20 0 0 0-3.9-.45l-24.56-.43a20.06 20.06 0 0 0-14.55 5.91 20 20 0 0 0-5.8 14.59l2.13 84.94a20 20 0 0 0 23.04 19.27l85.48-13.2a20 20 0 0 0 20.83 15.5l31.78-2.11a20 20 0 0 0 18.64-19.04 882006.1 882006.1 0 0 0 4.26-93.49 20 20 0 0 0-19.96-20h-.14l-.53.01-38.68 1.06a20 20 0 0 0-4.53.65l.68-11.7a20 20 0 0 0-18.6-21.1l-33.88-2.34c-.46-.03-.92-.05-1.38-.05Z" class="st2"/><path d="M555.4 197.47c-8.37 0-16.37-2.46-23.8-7.31l-.44-.3c-13.06-9.58-24.1-23-33-40.05-7.19 13.83-16.13 24.76-26.72 32.61l-.08.06c-9.4 6.83-20.45 10.29-32.82 10.29l-1.98-.03c-12.3-.4-22-3.76-28.86-9.99a10 10 0 0 1 .22-15 172.12 172.12 0 0 0 29.99-33.38c4.89-7.1 9.1-14.47 12.57-22l-32.46 1.61a9.98 9.98 0 0 1-10.48-10.55l.95-16.94a10 10 0 0 1 8.99-9.39c9.95-.99 24.65-1.93 43.76-2.79 2.64-17 4.31-35.35 4.99-54.66A10 10 0 0 1 476.52 10l40.32 1.2a10 10 0 0 1 9.7 10.36 759.3 759.3 0 0 1-2.85 45.07 5877.9 5877.9 0 0 0 43.45-1.75 10 10 0 0 1 9.86 8.34l3.58 21.24a10 10 0 0 1-9.33 11.65l-43.33 2.3a149.32 149.32 0 0 0 57.54 58.5 10 10 0 0 1 3.68 13.71c-4.84 8.29-13.27 13.67-25.08 15.99-2.91.57-5.82.86-8.66.86Z" class="st1"/><path d="m476.22 20 40.33 1.2c-.8 21.79-2.15 40.4-4.06 55.83 18.3-.63 36.51-1.35 54.65-2.15l3.58 21.24-58.47 3.1c14.64 33.25 37.38 58.7 68.25 76.36-3.34 5.73-9.47 9.47-18.38 11.22-2.27.44-4.52.67-6.72.67-6.42 0-12.53-1.9-18.33-5.68-16.7-12.25-29.75-31.42-39.13-57.51-7.48 22.9-18.3 39.61-32.46 50.1-7.7 5.6-16.67 8.39-26.94 8.39l-1.7-.03c-9.86-.32-17.33-2.78-22.42-7.4a181.3 181.3 0 0 0 31.73-35.31 152.9 152.9 0 0 0 19.33-38.42L417.52 104l.95-16.95c11.14-1.1 28.24-2.14 51.3-3.1 3.5-19.72 5.65-41.04 6.45-63.95m-.01-20a20 20 0 0 0-19.98 19.3c-.55 15.9-1.8 31.1-3.7 45.41-15.33.76-27.41 1.58-36.04 2.44a20 20 0 0 0-17.98 18.78l-.96 16.94a20 20 0 0 0 20.96 21.1l14.74-.73a162.17 162.17 0 0 1-31.84 36.9 20 20 0 0 0-.43 30.02c8.68 7.87 20.53 12.1 35.23 12.57h.05c.77.02 1.52.04 2.28.04 14.52 0 27.54-4.1 38.69-12.2l.17-.12a95.05 95.05 0 0 0 20.64-21.29c7.87 11.63 16.96 21.24 27.2 28.76l.9.61c9.07 5.93 18.92 8.94 29.26 8.94 3.48 0 7.04-.35 10.58-1.05 18.38-3.61 27.43-13.28 31.8-20.76a20 20 0 0 0-7.35-27.44c-18.46-10.56-33.39-24-45.14-40.72l26.49-1.4a20 20 0 0 0 18.66-23.3l-3.58-21.24a20 20 0 0 0-20.6-16.66c-10.46.46-21.03.9-31.62 1.3a847.51 847.51 0 0 0 1.9-34.28 20 20 0 0 0-19.4-20.72L476.8 0h-.6Z" class="st2"/><path d="M686.53 244.2c-3.44 0-6.97-.46-10.5-1.38-12.45-3.07-20.51-11.29-23.34-23.76a10 10 0 0 1 4.28-10.57l-47.13-.38a10 10 0 0 1-9.82-11.39l2.22-15.78a10 10 0 0 1 9.62-8.6c14.84-.42 31.27-.66 48.96-.73a10 10 0 0 1 3.04-4.54l-22.03-.88a10 10 0 0 1-9.48-11.53l3.45-22.2a10 10 0 0 1 10-8.46c25.43.31 52.6 1.27 80.86 2.86.2-1.46.37-2.93.53-4.4l-95.86 1.3a42.5 42.5 0 0 1-1.45 4.66 34.82 34.82 0 0 1-15.6 18.38 36.15 36.15 0 0 1-23.91 5 10 10 0 0 1-8.67-10.56l3.45-53.02a10 10 0 0 1 10.65-9.32l18.9 1.28-16.26-10.2a10 10 0 0 1-2.97-14.07l18.5-27.38a10 10 0 0 1 13.05-3.19C639.3 32 646.2 36.75 650.34 40.31a10 10 0 0 1 2.44-2.62l25.9-19.23a9.97 9.97 0 0 1 13.22 1.15c10.46 11.04 16.03 18.76 18.04 25.02l.08.25c1 3.42 1.4 6.92 1.17 10.48a365.6 365.6 0 0 0 15.1-30.2 10 10 0 0 1 13.7-4.87l34.27 17.51a10 10 0 0 1 5.09 11.6c-1.11 3.97-3.5 8.86-7.54 15.39-4.38 7.23-8.11 12.02-11.68 14.96a38.9 38.9 0 0 1-4.4 3.29 5882.6 5882.6 0 0 1 29.27-1.2 10 10 0 0 1 10 10.11c-.37 31.89-19.13 49.85-52.9 50.83-1.3 11.19-5.66 19.84-13 25.78 19.76.42 31.37.7 34.6.82a10 10 0 0 1 9.52 8.75l2.47 19.73a10 10 0 0 1-9.92 11.24l-45.78-.2.05 2.33v.38c-.3 16.46-8.66 24.37-15.63 28.11-5.7 3-11.68 4.49-17.88 4.49ZM661.58 65.14a45.49 45.49 0 0 1-.3 6 43.4 43.4 0 0 1-5.47 16.55c8.05-.4 15.8-.76 23.23-1.12a9.97 9.97 0 0 1-.94-1.01l-16.52-20.42Zm39.7 13.78a40.86 40.86 0 0 1-7.32 6.95l13.28-.62-1.2-.62a10 10 0 0 1-4.77-5.71Z" class="st1"/><path d="M684.64 26.49c9.04 9.53 14.3 16.6 15.78 21.2 1.64 5.6.82 11.6-2.46 18-2.96 5.92-7 10.45-12.09 13.57l-27.12-33.54 25.89-19.23m50.8 2.71 34.27 17.5c-.82 2.97-2.96 7.24-6.4 12.83-3.8 6.25-7 10.44-9.63 12.58-5.1 4.44-11.75 7.07-19.97 7.89a48.6 48.6 0 0 1-4.66.23 38 38 0 0 1-18.27-4.42 386.13 386.13 0 0 0 24.66-46.6m-113.19 4.92c13.65 7.4 22.03 13.24 25.15 17.51 3.46 4.93 4.77 11.02 3.95 18.25a32.39 32.39 0 0 1-7.15 17.01l-40.44-25.4 18.5-27.37m-27.13 54.74 29.1 1.98c0 3.29-.09 6.08-.25 8.38C701.4 95.45 755.08 93 785 91.83c-.32 27.33-15.6 40.99-45.85 40.99-1.06 0-2.13-.02-3.22-.05.99-6.58 1.73-13.4 2.22-20.47l-108.5 1.48-5.92-10.36c-.33 9.54-1.4 16.7-3.2 21.46a25.01 25.01 0 0 1-11.35 13.31 26.19 26.19 0 0 1-17.5 3.7l3.45-53.02M645.68 134c27.29.33 56.22 1.4 86.8 3.2-.33 11.02-3.7 19-10.11 23.93-5.8 4.38-14.65 6.58-26.55 6.58-1.92 0-3.92-.06-6-.17a29.99 29.99 0 0 0 1.72-9.37l-49.31-1.98 3.45-22.19m63.37 40.44v3.7c32.06.66 50.14 1.07 54.25 1.23l2.47 19.73-55.98-.25.25 12.58c-.17 9.37-3.62 15.86-10.36 19.48a27.93 27.93 0 0 1-13.15 3.3c-2.62 0-5.3-.36-8.06-1.08-8.71-2.14-14.05-7.56-16.02-16.28l10.6-3.45-.99-14.8-62.14-.49 2.22-15.78c17.6-.5 37.15-.74 58.7-.74l-.5-6.9 38.71-.25M684.63 6.5c-4.16 0-8.35 1.3-11.92 3.94L649.87 27.4a198.52 198.52 0 0 0-18.08-10.85 20 20 0 0 0-26.1 6.38l-18.5 27.38A20 20 0 0 0 586.16 71a20 20 0 0 0-10.99 16.58l-3.45 53.01a20 20 0 0 0 17.34 21.13 46 46 0 0 0 30.3-6.3 47.84 47.84 0 0 0 3.05-1.94 20 20 0 0 0 .7 8.58c-3.94.08-7.79.18-11.53.28a20 20 0 0 0-19.24 17.2l-2.22 15.79a20 20 0 0 0 19.64 22.78l32.74.26c.08.97.22 1.93.44 2.9 3.66 16.16 14.53 27.25 30.63 31.25a51.93 51.93 0 0 0 12.96 1.69 47.86 47.86 0 0 0 22.61-5.68c6.77-3.63 17.65-12.08 20.3-29.59l36.24.16h.09a20 20 0 0 0 19.84-22.48l-2.46-19.73a20 20 0 0 0-19.06-17.5c-2.1-.08-7.35-.22-15.88-.42a51.7 51.7 0 0 0 2.27-6.74c14.86-1.62 26.99-6.56 36.15-14.75 11.88-10.62 18.06-25.78 18.37-45.04v-.6a20 20 0 0 0-20.88-19.99l-5.04.2 1.28-2.08c4.52-7.32 7.26-13 8.62-17.9A20 20 0 0 0 778.8 28.9l-34.27-17.51a20 20 0 0 0-27.4 9.72 335.92 335.92 0 0 1-3.88 8.46c-3.34-4.87-7.94-10.34-14.1-16.84a19.97 19.97 0 0 0-14.53-6.24Z" class="st2"/></g><g style="filter:url(#drop-shadow-2)"><path d="m1319.88 278.92 40.7 11.26c-1.2 3.93-3.16 9.98-5.89 18.18 13.14 10.58 30.63 21.59 52.48 33.02-1.37 4.95-5.37 8.36-12.03 10.24a27.1 27.1 0 0 1-7.74 1.2c-3.4 0-6.62-.75-9.67-2.22-10.24-4.95-20.65-12.12-31.23-21.5-5.12 10.4-10.16 18.34-15.1 23.8-5.3 5.98-13.57 9.98-24.84 12.03-3.17.5-6.18.73-9.03.73-7.12 0-13.24-1.52-18.36-4.57 15.02-22.7 28.59-50.09 40.7-82.17m-427.8 2.2c8.44 8.92 13.37 15.53 14.75 19.83 1.54 5.23.77 10.84-2.3 16.84-2.77 5.53-6.54 9.76-11.3 12.68l-25.37-31.36 24.21-17.99m-401.54 1.08 44.28 2.05a767.75 767.75 0 0 1-4.35 18.94c40.76-1.38 68.41-2.07 82.98-2.07 1.6 0 3.04 0 4.32.02-1.2 18.1-7.17 30.13-17.92 36.1-6.26 3.56-15.36 5.33-27.3 5.33-2.39 0-4.9-.07-7.52-.21 1.7-8.2 2.47-15.36 2.3-21.5l-60.67 1.02c4.27 2.73 7.51 5.2 9.73 7.42 2.4 2.56 3.16 6.24 2.3 11.01a20.13 20.13 0 0 1-6.4 11.78l-20.99-15.87 12.8-14.34-45.05.77-6.4-12.29c-.51 7-1.54 12.72-3.07 17.15-1.88 5.3-5.72 9.47-11.52 12.55a31.95 31.95 0 0 1-14.81 3.6c-1.44 0-2.9-.09-4.4-.28l4.1-46.59 30.47 2.05c0 3.07-.1 5.63-.26 7.68 12.46-.51 24.83-1.1 37.12-1.8l.26-22.52m449.04 1.46 32.06 16.37c-.78 2.77-2.77 6.77-6 12-3.54 5.84-6.53 9.76-9 11.75-4.76 4.15-10.99 6.61-18.67 7.38-1.48.15-2.94.22-4.36.22a35.54 35.54 0 0 1-17.09-4.14 361.06 361.06 0 0 0 23.06-43.58m-105.84 4.61c12.76 6.92 20.6 12.38 23.52 16.37 3.23 4.62 4.46 10.3 3.7 17.07-.78 6.15-3 11.45-6.7 15.9l-37.81-23.74 17.3-25.6m367.36 9.33a2109.4 2109.4 0 0 1 72.2 4.61l-3.85 84.74c3.59 0 7.08-.08 10.5-.26-1.37 28-3.76 52.91-7.17 74.76-.68 4.77-2.56 8.27-5.63 10.5a13.12 13.12 0 0 1-7.88 2.78c-.78 0-1.57-.08-2.36-.23-7.17-1.02-11.44-5.29-12.8-12.8l6.91-2.56a705.89 705.89 0 0 0 3.59-57.09 1764.88 1764.88 0 0 0-57.1 9.73l2.05-60.41 35.08 1.27c0 5.98-.35 18.01-1.03 36.1 3.59-.34 9.22-.68 16.9-1.02l1.8-53.76-54.28-2.82 3.07-33.54m-841.15 2.22a914.23 914.23 0 0 0 6.42 51.54 638.14 638.14 0 0 1 24.11-2.14l2.53 11.67-26.64 3.11c3.24 15.82 7.06 28.98 11.47 39.48 2.13 4.94 5.6 7.4 10.44 7.4 3.43 0 7.53-1.23 12.32-3.7 1.55 10.37.32 18.34-3.7 23.92-3.63 5.18-9.47 8.03-17.5 8.55-1 .08-1.99.12-2.95.12-13.5 0-23.22-7.62-29.14-22.87-5.58-13.74-9.8-28.98-12.64-45.7l-22.37 2.72-.58-15.56a1092 1092 0 0 0 21.97-2.92 808.21 808.21 0 0 1-7.58-51.92l33.84-3.7m25.09 4.09c4.4 2.46 8.3 5.5 11.67 9.14 1.94 2.98 2.72 6.6 2.33 10.89-.52 4.66-2.27 8.43-5.25 11.28l-21.98-15.76 13.23-15.55m-102.3 5.44 26.84 17.11a228.34 228.34 0 0 1-13.81 20.62c-6.49 8.56-11.93 14.26-16.34 17.11a27.05 27.05 0 0 1-5.25 2.53l17.9 1.17c1.94 26.45 2.91 46.48 2.91 60.1l-27.42 2.13-1.75-61.84c-.69.03-1.37.04-2.03.04-8.01 0-14.53-2.15-19.56-6.46a495.25 495.25 0 0 0 38.5-52.5m-59.37.79c.34 24.23.51 62.3.51 114.17l-34.81-.5c-.35-30.04-.35-60.25 0-90.63l-53.25.77c.34 37.54.42 67.16.25 88.83l-17.4-.26c-.35-33.45 0-69.71 1.02-108.8l70.66-.77 33.02-2.81m848.78.05 43.76 1.89c-1.1 7.37-2.67 15.6-4.7 24.7 24.45-1.1 46.64-1.73 66.56-1.89 0 16.47-5.88 27.76-17.64 33.87-7.69 3.77-18.98 5.65-33.87 5.65.62-1.57 1.56-8.7 2.82-21.4l-80.45.93-5.64-10.1a92.48 92.48 0 0 1-4 15.52c-2.04 5.49-6.27 10.03-12.7 13.64a29.78 29.78 0 0 1-14.96 3.84c-1.56 0-3.16-.1-4.8-.31l4-48.46 33.63 3.76c-.47 5.02-.7 7.69-.7 8l28.7-1.41V310.2M99.95 320.4l3.84 27.39-26.37 2.3.26 30.98c4.6.17 11.09.6 19.45 1.28l.51 15.36-17.66-.26v19.72c8.7-.68 17.4-1.45 26.11-2.3l-3.84 14.33c-29.18 4.44-54.27 8.7-75.26 12.8l-4.87-16.39c8.36-1.53 20.06-3.4 35.08-5.63v-23.04l-24.07-.51 2.82-15.1c6.48-.52 12.8-.77 18.94-.77v-28.67l-28.67 2.56.51-27.9c22.7-3.25 47.1-5.3 73.22-6.15m433.56 10.96 16.39 7.68c-7.68 14.17-18 28.25-30.98 42.24.68 0 1.28-.08 1.8-.25 16.03-2.9 30.11-12.89 42.23-29.96 6.83 20.14 3.67 33.88-9.47 41.22-9.56 5.46-22.1 8.54-37.63 9.22-4.78 0-9.64-.77-14.6-2.3-4.6 4.6-9.04 7.59-13.3 8.95-2.15.6-4.2.9-6.14.9-4.7 0-8.8-1.75-12.3-5.25 5.8-2.73 12.2-6.74 19.2-12.03a33.04 33.04 0 0 1-4.6-5.63c-4.96-7.85-8.62-18.6-11.01-32.26l26.11-4.1a75.51 75.51 0 0 0 4.1 21.76 34.22 34.22 0 0 0 2.3 4.36c11.6-14.34 20.9-29.19 27.9-44.55m178.71 7.1c24.94 1.1 48.17 2.54 69.69 4.32l-3.9 71.74c5.75 0 10 .07 12.74.2-1.51 24.13-3.98 45.57-7.4 64.35-.55 3.43-2.2 6.1-4.93 8.02a14.7 14.7 0 0 1-8.84 2.67c-3.43 0-6.45-.9-9.05-2.67a13.1 13.1 0 0 1-5.34-7.82l9.04-2.05a546.86 546.86 0 0 0 3.9-50.16c-27.81 3.02-47.62 5.42-59.4 7.2l1.85-52.63 35.56 1.03c-.27 11.1-.69 21.93-1.23 32.48 5.2-.41 10.9-.62 17.06-.62l1.65-46.25-54.48-2.88 3.08-26.93m96.13 1.01 27.2 1.85c0 3.08-.07 5.69-.22 7.84 72.4-3.54 122.6-5.84 150.57-6.92-.3 25.55-14.58 38.33-42.88 38.33-.98 0-1.99-.02-3-.05a242.7 242.7 0 0 0 2.07-19.14l-101.46 1.38-5.53-9.68c-.31 8.92-1.31 15.6-3 20.06a23.4 23.4 0 0 1-10.6 12.45 24.49 24.49 0 0 1-16.38 3.46l3.23-49.58m-110.93 3.72 2.06 26.72-28.37 1.44c-3.43 11.79-7.33 22.07-11.72 30.84l9.67 1.85 27.54 2.46a392.9 392.9 0 0 1-4.32 48.93l-25.49-5.14-23.84-2.88 2.47-27.34c-1.93.96-3.5 1.51-4.73 1.65a23 23 0 0 1-4.38.43c-2.59 0-5.04-.49-7.34-1.46 10.28-13.16 18.09-29.26 23.43-48.3l-20.55 1.02.61-26.73a952.7 952.7 0 0 1 30.84-2.46c7.4-.41 18.77-.75 34.12-1.03m-29.4 98.47 3.3-29.81-10.7-.82-3.28 30.21 10.69.42m-221.3-92.63 23.55 23.8c-7.68 8.37-14.59 14-20.73 16.9-2.87 1.34-6.09 2-9.65 2-2.8 0-5.81-.4-9.04-1.23-7.68-1.88-13.57-5.46-17.67-10.75l33.54-30.72m145.92 11 23.04 18.7c-2.9 4.77-7 8.02-12.29 9.72a19.8 19.8 0 0 1-6.24 1.11c-2.52 0-4.79-.62-6.81-1.88-3.76-2.05-8.54-5.8-14.34-11.26l16.64-16.39m717.23 9.52c24.92 1.2 47.1 2.65 66.56 4.35l.77 18.18-71.42-3.84 4.1-18.69m-263.87 3.23c6.74 2.51 12.38 5.88 16.93 10.12a8.3 8.3 0 0 1 3.06 5.4c.15.95.23 2.99.23 6.12 0 3.61-1.4 7.38-4.23 11.3l-29.87-15.53 13.88-17.4m34.8 6.81 39.06 8.94c-3.46 18.67-8 35.13-13.65 49.4 26.03-.94 46.1-1.57 60.22-1.88l4.47 18.34-47.75 2.6c10.03 8.62 25.48 17.24 46.34 25.87-3.3 6.42-8.08 10.82-14.35 13.17a32.8 32.8 0 0 1-10.98 1.95c-4.22 0-8.4-.88-12.54-2.66-13.8-7.21-26.04-18.58-36.7-34.1-4.7 8.15-9.8 15.76-15.29 22.81-6.9 8.78-15.68 13.41-26.34 13.88-1.3.06-2.57.09-3.8.09-9.12 0-16.71-1.52-22.78-4.56a189.1 189.1 0 0 0 27.28-36.46l-42.8 1.18 2.1-16c10.04-.62 26.59-1.4 49.64-2.35a214.74 214.74 0 0 0 17.88-60.22m-225.21 2.07c25.52.31 52.57 1.31 81.17 3-.31 10.3-3.46 17.75-9.46 22.37-5.43 4.1-13.7 6.15-24.82 6.15-1.8 0-3.67-.05-5.62-.16a28.05 28.05 0 0 0 1.62-8.76l-46.12-1.85 3.23-20.75m-703.2 12.46 23.05 9.21c-2.4 10.75-6.91 24.07-13.57 39.94-7 16.73-13.57 29.1-19.71 37.12-4.95 6.48-11.35 9.98-19.2 10.5-1.1.15-2.16.22-3.2.22-4.74 0-8.8-1.61-12.16-4.83 8.87-8.7 18-23.04 27.39-43.01 8.7-18.6 14.5-34.99 17.4-49.15m1191.25 1.28a53.75 53.75 0 0 1 6.15 15.36c1.53 5.8 1.1 10.84-1.28 15.1-2.4 4.1-6.32 6.66-11.78 7.68l-16.13-30.2 23.04-7.94m22.79 7.68 32 9.47c-2.22 7.68-4.96 14.25-8.2 19.71-4.26 7.85-10.49 12.97-18.68 15.36a32.78 32.78 0 0 1-8.85 1.23c-4.44 0-8.92-.92-13.43-2.77 7.69-16.55 13.4-30.88 17.16-43m-334.32 2.62c8.3 2.67 14.03 5.5 17.17 8.47 3.6 3.3 5.49 6.82 5.64 10.59.32 3.13-.78 6.66-3.29 10.58l-30.81-11.52 11.29-18.12m278 2.5c4.95 6.48 8.19 12.46 9.73 17.92 1.36 5.29 1.1 10.07-.77 14.33-1.88 4.1-5.21 7-9.99 8.7l-21.24-29.94 22.27-11.01m-395.26 11.28v3.46c29.98.61 46.89 1 50.73 1.15l2.3 18.45-52.34-.23.23 11.76c-.15 8.76-3.38 14.83-9.68 18.21a26.12 26.12 0 0 1-12.3 3.08c-2.45 0-4.96-.33-7.53-1-8.15-2-13.15-7.07-15-15.22l9.92-3.23-.92-13.83-58.1-.47 2.07-14.75c16.45-.46 34.74-.7 54.88-.7l-.46-6.45 36.2-.23m-330.93 2.24c1.7 29.18 2.9 50.52 3.58 64l-37.89 5.12c-1.37-9.22-2.81-18.52-4.35-27.9l-8.7 13.3-91.4 14.86 1.8-61.96 25.85 2.3c-2.9 20.83-4.6 32.6-5.12 35.34 11.27-1.03 19.8-1.8 25.6-2.3l-2.05-40.2 31.75-1.8-.51 8.46c-1.37 17.58-2.3 28.07-2.82 31.48 11.43-.68 19.8-1.28 25.09-1.79-3.59-22.35-5.47-34.47-5.63-36.35l44.8-2.56m661.68.3-1.03 22.53-44.54 13.31-5.12-24.83c17.4-4.27 34.3-7.94 50.69-11M200.82 440.44c1.37 7 2.9 12.03 4.6 15.1 1.12 1.9 3.26 2.85 6.42 2.85a26 26 0 0 0 5.88-.8 33 33 0 0 0 18.17-13.56c4.27 10.4 4.18 20.82-.25 31.23-2.22 3.93-6.06 7.08-11.52 9.47a45.24 45.24 0 0 1-14.85 3.33c-.9.06-1.82.08-2.74.08-4.63 0-9.43-.7-14.41-2.13-6.5-1.88-11.35-4.7-14.6-8.45-6.14-7.17-9.98-17.32-11.51-30.46l34.81-6.66m556.43 5.92-1.03 18.1-45.01 6.16-4.94-19.94c19.46-2.05 36.45-3.5 50.98-4.32m531.4 6.11 109.05.52 1.8 23.55-112.14 1.02 1.28-25.09m31.23-193.57a20 20 0 0 0-18.7 12.94c-3 7.95-6.1 15.6-9.3 22.96a20 20 0 0 0-17-12.53 2139.55 2139.55 0 0 0-73.8-4.68 20 20 0 0 0-19.9 18.18l-1.75 19.2a20.02 20.02 0 0 0-1.83-.08c-12.97.1-27.04.41-42.04.91l.12-.78a20 20 0 0 0-18.92-22.93l-43.76-1.88a20.06 20.06 0 0 0-14.69 5.54 20 20 0 0 0-6.17 14.44v3.3c-1.79-.78-3.72-1.3-5.76-1.53l-33.64-3.77a20.02 20.02 0 0 0-21.55 14.74 20 20 0 0 0-6.04-.7l-2.38.1c4.24-6.89 6.82-12.27 8.12-16.94a20 20 0 0 0-10.17-23.18l-32.05-16.37a20 20 0 0 0-27.39 9.72c-.86 1.96-1.75 3.92-2.67 5.88a147.17 147.17 0 0 0-12.02-14.08 19.97 19.97 0 0 0-26.44-2.3l-20.63 15.32c-4.39-2.98-9.74-6.17-16.25-9.7a20 20 0 0 0-26.1 6.38l-17.3 25.6a20 20 0 0 0-1.61 19.54 20 20 0 0 0-4.96 4.1 19.92 19.92 0 0 0-9.72-3.47 1850.25 1850.25 0 0 0-71.35-4.39c-4.92 0-9.48 1.8-13 4.81a20.16 20.16 0 0 0-2.15-.08 1015.05 1015.05 0 0 0-35.04 1.07c-10 .64-19.79 1.41-29.13 2.3 2.6-7.06 4.21-15.13 4.8-24.09a20 20 0 0 0-19.7-21.31c-1.35-.02-2.88-.03-4.57-.03-11.54 0-31.23.43-58.71 1.27a20 20 0 0 0-19-18.12l-44.28-2.05a20.01 20.01 0 0 0-20.92 19.75l-.04 3.76-1.9.09a19.96 19.96 0 0 0-13.84-6.94l-30.47-2.04a20 20 0 0 0-20.81 15.37 68.38 68.38 0 0 0-8.67-5.76 19.95 19.95 0 0 0-19.83.17 20 20 0 0 0-17.2-6.68l-33.83 3.7a20 20 0 0 0-17.63 17.02l-12.82-8.17a20 20 0 0 0-27.63 6.13 470.92 470.92 0 0 1-22.28 32c-.06-7.78-.14-14.7-.22-20.75a20 20 0 0 0-21.7-19.65l-32.28 2.75-69.92.76a19.96 19.96 0 0 0-15.1 7.14 19.98 19.98 0 0 0-5.05-.47c-26.71.87-52.08 3-75.39 6.33a20 20 0 0 0-17.17 19.44l-.5 27.9a20 20 0 0 0 11.7 18.57 19.99 19.99 0 0 0-1.64 5.01l-2.82 15.1a20 20 0 0 0 2.44 13.84 20 20 0 0 0-12.96 24.7l4.86 16.4a20 20 0 0 0 23 13.93c20.55-4.01 45.6-8.27 74.45-12.66 1.88-.29 3.67-.83 5.34-1.6C103.27 461 97.49 468.22 93.63 472a20 20 0 0 0 .17 28.72 36.9 36.9 0 0 0 26 10.4c1.71 0 3.46-.12 5.21-.33 13.33-1.06 24.76-7.36 33.08-18.26.92-1.2 1.83-2.45 2.74-3.78.5.63 1 1.24 1.51 1.84l.04.05c5.8 6.71 13.93 11.62 24.17 14.59l.08.02a72.67 72.67 0 0 0 19.9 2.9 65.4 65.4 0 0 0 25.61-5.1c9.5-4.15 16.53-10.19 20.9-17.94.37-.65.7-1.32 1-2 4.93-11.58 6.19-23.68 3.76-35.52a20 20 0 0 0 11.31 2.47l27.43-2.14A20 20 0 0 0 314.98 428c0-8.95-.38-20.23-1.17-34.13l.9-.09 4.1-.5c2.68 10.98 6 21.36 9.9 31.02 12.07 30.87 35.07 35.48 47.73 35.48 1.43 0 2.9-.06 4.38-.17 17.7-1.18 27.36-9.82 32.37-16.91 6.46-9.02 9.04-20.54 7.7-34.3 1.65.57 3.36 1.07 5.13 1.5a58.5 58.5 0 0 0 11.27 1.77 20 20 0 0 0-10.29 16.9l-1.79 61.96a20 20 0 0 0 23.2 20.32l82.36-13.38a20.02 20.02 0 0 0 21.56 13.2l37.89-5.12a20 20 0 0 0 17.3-20.83 9355.4 9355.4 0 0 0-3.6-64.16 19.91 19.91 0 0 0-4.16-11.1c3.23-.23 6.54-.9 9.86-2 2.14-.7 4.2-1.54 6.16-2.53a91.66 91.66 0 0 1-2.56 3.44 20 20 0 0 0 7.95 30.73c.79.33 1.58.64 2.38.92l-.51 5.58a20 20 0 0 0 17.52 21.67l23.06 2.78 24.72 4.98a20 20 0 0 0 3.45.4v.01a20 20 0 0 0 22.13 15.02l22.84-3.13a32.96 32.96 0 0 0 12.49 16.26 35.82 35.82 0 0 0 20.34 6.17c7.55 0 14.62-2.21 20.45-6.4a31.37 31.37 0 0 0 13.02-20.87 475.16 475.16 0 0 0 4.15-27.62 20 20 0 0 0 14.82 6.75l29.46.24c.08.57.18 1.14.31 1.7 3.49 15.4 14.27 26.4 29.6 30.2a49.85 49.85 0 0 0 12.43 1.61 46.04 46.04 0 0 0 21.76-5.46c6.41-3.44 16.64-11.34 19.48-27.5l32.77.14h.09a20 20 0 0 0 19.84-22.48l-2.3-18.45a20 20 0 0 0-19.06-17.5c-1.8-.08-6.12-.2-13.01-.35.45-1.23.87-2.52 1.25-3.87 13.78-1.64 25.06-6.33 33.65-14l.36-.33c2.9 5.73 8.5 9.95 15.31 10.82a58.11 58.11 0 0 0 9.31.43c.1.29.2.57.32.85l-9.72 15.58a20 20 0 0 0-2.86 13.16 19.98 19.98 0 0 0-7.52 13.14l-2.11 16a20 20 0 0 0 20.37 22.61l1.96-.05-1.43 1.51a20 20 0 0 0 5.5 31.72c8.86 4.42 19.53 6.67 31.72 6.67 1.52 0 3.1-.04 4.68-.1 16.47-.74 30.71-8.17 41.2-21.5l.06-.1c.48-.6.95-1.22 1.42-1.83a110.62 110.62 0 0 0 25.51 18.58 51.6 51.6 0 0 0 21.81 4.94 52.9 52.9 0 0 0 18-3.24c10.9-4.08 19.59-11.96 25.13-22.77a20 20 0 0 0-.48-19.11 20 20 0 0 0 18.95 4.15l20.1-6c4.23 12.64 14.26 21.14 27.75 23.22a32.3 32.3 0 0 0 19.45-2.65 20 20 0 0 0 14.46 5.98l112.12-1.02a20 20 0 0 0 19.76-21.52l-1.79-23.55a19.97 19.97 0 0 0-7.4-14.07c2.9-5.73 5.39-12.2 7.44-19.3a20 20 0 0 0-13.54-24.74l-6.94-2.05v-.1l-.77-18.17a20.1 20.1 0 0 0-.08-1.14c1.45-.3 2.9-.65 4.36-1.08 18-5.13 23.86-17.3 25.74-24.12a20 20 0 0 0-10-23.05c-14.95-7.82-27.76-15.43-38.28-22.73.6-1.9 1.12-3.53 1.54-4.92a20 20 0 0 0-13.8-25.1l-40.7-11.27a20 20 0 0 0-5.34-.73ZM155.96 353.67l12.9-.19c-.05 8.55-.07 17.1-.07 25.64l-8.92-3.57a20 20 0 0 0-3.8-1.1c-.02-6.6-.06-13.52-.11-20.78Zm983.26 40.26c12.01-.95 21.8-3.33 29.68-7.2l.43-.21a52.9 52.9 0 0 0 9.23-6.07l-1.04 30.65a20 20 0 0 0 1.93 9.28l-.22.28a19.97 19.97 0 0 0-13.22-4.6c-8.55.18-19.25.49-31.98.9a335.73 335.73 0 0 0 5.2-23.03Zm-748.04-12.7 2.06-.23c.15 2.38.73 4.74 1.74 6.98-.5.14-1 .3-1.48.5-.8-2.3-1.57-4.7-2.32-7.24Zm-147.36 44.44c.03-.45.04-.9.04-1.35 0-14.2-.01-27.42-.04-39.62.81.33 1.64.63 2.47.91l1.2 42.13a20.02 20.02 0 0 0-3.67-2.07ZM573.3 402.3l1.12-1.13c.47.34.93.67 1.4.98l-2.52.15Zm258.37.5.73-.43a20 20 0 0 0 .45 4.27 1535.24 1535.24 0 0 0-9.95.26c3-1.03 5.94-2.4 8.77-4.1ZM810 409.26c2.01-.06 4-.26 5.95-.59-1.97.9-3.77 2.12-5.34 3.6a20 20 0 0 0-.61-3.01Z" class="st1"/><path d="m79.99 397.44 17.66.26-.5-15.36c-8.37-.68-14.86-1.1-19.46-1.28l-.26-30.98 26.37-2.3-3.84-27.4c-26.11.86-50.52 2.91-73.22 6.15l-.51 27.9 28.67-2.55v28.67c-6.14 0-12.46.25-18.94.77l-2.82 15.1 24.07.51v23.04c-15.02 2.22-26.72 4.1-35.08 5.63L27 442c20.99-4.1 46.08-8.36 75.26-12.8l3.84-14.34c-8.7.86-17.4 1.63-26.11 2.3v-19.7ZM152.44 394.12c-2.9 14.16-8.7 30.55-17.41 49.15-9.39 19.97-18.52 34.3-27.4 43 4.1 3.93 9.22 5.47 15.37 4.61 7.85-.5 14.25-4 19.2-10.5 6.14-8.01 12.7-20.38 19.7-37.11 6.67-15.87 11.19-29.19 13.58-39.94l-23.04-9.21Z" class="st5"/><path d="M136.05 422.79c.17-21.67.09-51.29-.25-88.83l53.25-.77c-.35 30.38-.35 60.59 0 90.62l34.81.51c0-51.88-.17-89.94-.51-114.17l-33.02 2.81-70.66.77c-1.02 39.09-1.37 75.35-1.02 108.8l17.4.26Z" class="st5"/><path d="M217.72 457.6c-6.5 1.54-10.59.86-12.3-2.04-1.7-3.08-3.23-8.1-4.6-15.1l-34.81 6.65c1.53 13.14 5.37 23.3 11.52 30.46 3.24 3.76 8.1 6.57 14.59 8.45a50.83 50.83 0 0 0 17.15 2.05 45.24 45.24 0 0 0 14.85-3.33c5.46-2.4 9.3-5.54 11.52-9.47 4.43-10.41 4.52-20.82.25-31.23a33 33 0 0 1-18.17 13.56Z" class="st2"/><path d="M244.22 361.86c5.45 4.67 12.64 6.8 21.59 6.42l1.75 61.84 27.42-2.13c0-13.62-.97-33.65-2.92-60.1l-17.89-1.17c1.56-.51 3.3-1.36 5.25-2.53 4.4-2.85 9.85-8.55 16.34-17.11a228.3 228.3 0 0 0 13.8-20.61l-26.83-17.12a495.27 495.27 0 0 1-38.5 52.51ZM377.83 403.48c-4.4-10.5-8.23-23.66-11.47-39.48L393 360.9l-2.53-11.67c-6.1.39-14.13 1.1-24.11 2.14-2.47-15.82-4.6-33-6.42-51.54l-33.84 3.7a808.25 808.25 0 0 0 7.58 51.92c-7.26 1.04-14.58 2.01-21.97 2.92l.58 15.56 22.37-2.72c2.85 16.72 7.06 31.96 12.64 45.7 6.35 16.34 17.04 23.92 32.09 22.75 8.03-.52 13.87-3.37 17.5-8.55 4.02-5.58 5.25-13.55 3.7-23.92-11.55 5.96-19.13 4.73-22.76-3.7Z" class="st5"/><path d="M399.03 323.94c.39-4.28-.39-7.91-2.33-10.9a47.44 47.44 0 0 0-11.67-9.13l-13.23 15.55 21.98 15.76c2.98-2.85 4.73-6.62 5.25-11.28Z" class="st2"/><path d="m470.3 372.82-23.56-23.8-33.54 30.72c4.1 5.29 9.99 8.87 17.67 10.75 7.33 1.88 13.57 1.62 18.69-.77 6.14-2.9 13.05-8.53 20.73-16.9ZM530.45 303.2a767.45 767.45 0 0 0 4.35-18.95l-44.28-2.05-.26 22.53a2553.9 2553.9 0 0 1-37.12 1.79c.17-2.05.26-4.6.26-7.68l-30.47-2.05-4.1 46.6c6.83.85 13.23-.26 19.2-3.33 5.8-3.08 9.65-7.26 11.53-12.55 1.53-4.43 2.56-10.15 3.07-17.15l6.4 12.29 45.05-.77-12.8 14.34 21 15.87c3.4-3.07 5.54-7 6.4-11.78.85-4.77.08-8.45-2.3-11-2.23-2.22-5.47-4.7-9.74-7.43l60.68-1.02c.16 6.14-.6 13.3-2.3 21.5 15.7.86 27.3-.85 34.8-5.12 10.76-5.97 16.73-18 17.93-36.1-12.97-.16-42.07.52-87.3 2.05ZM539.16 424.28c.16 1.88 2.04 14 5.63 36.35-5.3.51-13.66 1.11-25.09 1.8.51-3.42 1.45-13.91 2.82-31.5.16-2.72.34-5.54.5-8.44l-31.74 1.79 2.05 40.2c-5.8.5-14.33 1.27-25.6 2.3.51-2.73 2.22-14.5 5.12-35.33l-25.85-2.3-1.8 61.95 91.4-14.85 8.7-13.31c1.54 9.38 2.98 18.68 4.35 27.9l37.9-5.12a9429.8 9429.8 0 0 0-3.6-64l-44.8 2.56Z" class="st5"/><path d="M487.96 408.15c4.26-1.36 8.7-4.35 13.3-8.96a49.04 49.04 0 0 0 14.6 2.3c15.53-.67 28.07-3.75 37.63-9.21 13.14-7.34 16.3-21.08 9.47-41.22-12.12 17.07-26.2 27.06-42.24 29.96-.5.17-1.1.25-1.79.25 12.97-14 23.3-28.07 30.98-42.24l-16.39-7.68c-7 15.36-16.3 30.21-27.9 44.55a34.26 34.26 0 0 1-2.3-4.36 75.51 75.51 0 0 1-4.1-21.76l-26.11 4.1c2.39 13.66 6.05 24.4 11 32.26a33.03 33.03 0 0 0 4.61 5.63c-7 5.29-13.4 9.3-19.2 12.03 4.95 4.95 11.1 6.4 18.44 4.35ZM576.02 376.4c5.8 5.47 10.58 9.22 14.34 11.27 3.58 2.22 7.93 2.48 13.05.77a21.76 21.76 0 0 0 12.3-9.73l-23.05-18.69-16.64 16.39ZM659.4 402.18c4.39-8.77 8.3-19.05 11.72-30.84l28.37-1.44-2.06-26.72c-15.35.28-26.72.62-34.12 1.03a953.29 953.29 0 0 0-30.84 2.46l-.61 26.73 20.55-1.03c-5.34 19.05-13.15 35.15-23.43 48.3a19.77 19.77 0 0 0 11.72 1.04c1.23-.14 2.8-.69 4.73-1.65l-2.47 27.34 23.84 2.88 25.5 5.14a392.9 392.9 0 0 0 4.31-48.93l-27.54-2.46-9.67-1.85Zm8.64 39.47-10.7-.42 3.3-30.21 10.69.82-3.3 29.8ZM757.25 446.37c-14.53.83-31.52 2.27-50.98 4.32l4.94 19.94 45.01-6.17 1.03-18.09Z" class="st5"/><path d="M781.92 342.77a1821.38 1821.38 0 0 0-69.69-4.32l-3.08 26.93 54.48 2.88-1.65 46.25c-6.17 0-11.85.2-17.06.62.54-10.55.96-21.38 1.23-32.48l-35.56-1.03-1.85 52.63c11.78-1.78 31.59-4.18 59.4-7.2-.54 17-1.84 33.71-3.9 50.16l-9.04 2.05a13.1 13.1 0 0 0 5.34 7.82 15.63 15.63 0 0 0 9.05 2.67c3.42 0 6.37-.9 8.84-2.67a11.62 11.62 0 0 0 4.93-8.02c3.42-18.78 5.89-40.22 7.4-64.34-2.74-.14-6.99-.2-12.75-.2l3.91-71.75ZM835.57 341.3l-27.21-1.84-3.23 49.58c5.84.77 11.3-.38 16.37-3.46a23.4 23.4 0 0 0 10.61-12.45c1.69-4.46 2.69-11.14 3-20.06l5.53 9.68 101.46-1.38c-.46 6.61-1.15 13-2.07 19.14 30.28.92 45.57-11.84 45.88-38.28-27.98 1.08-78.17 3.38-150.57 6.92.15-2.15.23-4.76.23-7.84ZM860.93 321.7c.77-6.75-.46-12.44-3.69-17.06-2.92-4-10.76-9.45-23.52-16.37l-17.3 25.6 37.83 23.75a30.28 30.28 0 0 0 6.68-15.91Z" class="st5"/><path d="M965.62 424.09c-3.84-.15-20.75-.54-50.73-1.15v-3.46l-36.2.23.46 6.45c-20.14 0-38.43.24-54.88.7l-2.08 14.75 58.11.47.92 13.83-9.91 3.23c1.84 8.15 6.84 13.22 14.99 15.22 7.07 1.84 13.68 1.15 19.83-2.08 6.3-3.38 9.53-9.45 9.68-18.21l-.23-11.76 52.35.23-2.3-18.45ZM927.34 407.03c6-4.62 9.15-12.07 9.46-22.37-28.6-1.69-55.65-2.69-81.17-3l-3.23 20.75 46.12 1.85c0 2.61-.54 5.53-1.62 8.76 14 .77 24.14-1.23 30.44-6Z" class="st2"/><path d="M904.51 317.79c3.08-6 3.84-11.6 2.31-16.84-1.38-4.3-6.3-10.9-14.76-19.83l-24.2 17.99 25.36 31.36c4.76-2.92 8.53-7.15 11.3-12.68ZM937.95 331.16c7.68-.77 13.91-3.23 18.68-7.38 2.45-2 5.45-5.91 9-11.76 3.22-5.22 5.21-9.22 5.99-11.99l-32.06-16.37a361.07 361.07 0 0 1-23.06 43.58c6.3 3.39 13.46 4.7 21.45 3.92ZM1115.89 312.09l-43.76-1.89v28.23l-28.7 1.41c0-.31.24-2.98.71-8l-33.63-3.76-4 48.46c7.37.94 13.95-.24 19.76-3.53 6.42-3.6 10.66-8.15 12.7-13.64a92.5 92.5 0 0 0 4-15.53l5.64 10.11 80.45-.94c-1.26 12.7-2.2 19.84-2.82 21.41 14.9 0 26.18-1.88 33.87-5.65 11.76-6.11 17.64-17.4 17.64-33.87-19.92.16-42.1.79-66.57 1.88a351.1 351.1 0 0 0 4.7-24.7ZM1166.46 436.05c-14.11.31-34.19.94-60.22 1.88 5.65-14.27 10.2-30.73 13.65-49.4l-39.05-8.94a214.75 214.75 0 0 1-17.88 60.22c-23.05.94-39.6 1.73-49.63 2.35l-2.12 16 42.81-1.18a189.1 189.1 0 0 1-27.28 36.46c6.9 3.45 15.76 4.94 26.58 4.47 10.66-.47 19.44-5.1 26.34-13.88a199.56 199.56 0 0 0 15.3-22.81c10.65 15.52 22.89 26.89 36.69 34.1a31.3 31.3 0 0 0 23.52.7c6.27-2.34 11.05-6.74 14.35-13.16-20.86-8.63-36.3-17.25-46.34-25.88l47.75-2.59-4.47-18.34Z" class="st5"/><path d="m1020.86 423.82 30.81 11.52c2.5-3.92 3.6-7.44 3.3-10.58-.16-3.77-2.05-7.3-5.65-10.59-3.14-2.98-8.86-5.8-17.17-8.47l-11.3 18.12ZM1066.25 394.41c0-3.13-.08-5.17-.23-6.11a8.3 8.3 0 0 0-3.06-5.41c-4.55-4.24-10.2-7.6-16.93-10.12l-13.88 17.41 29.87 15.52c2.82-3.91 4.23-7.68 4.23-11.29Z" class="st2"/><path d="M1245.64 422.02a945.86 945.86 0 0 0-50.7 11l5.13 24.84 44.54-13.31 1.03-22.53Z" class="st5"/><path d="M1273.28 302.21c-25.6-2.05-49.66-3.58-72.19-4.6l-3.07 33.53 54.27 2.82-1.8 53.76c-7.67.34-13.3.68-16.89 1.02.68-18.09 1.03-30.12 1.03-36.1l-35.08-1.27-2.04 60.41c20.13-3.75 39.17-7 57.08-9.73a705.9 705.9 0 0 1-3.58 57.1l-6.91 2.55c1.36 7.51 5.63 11.78 12.8 12.8 3.58.68 7-.17 10.24-2.56 3.07-2.22 4.95-5.72 5.63-10.5 3.41-21.84 5.8-46.76 7.17-74.75-3.42.18-6.91.26-10.5.26l3.84-84.74ZM1354.7 308.36c2.72-8.2 4.68-14.25 5.88-18.18l-40.7-11.26c-12.12 32.08-25.7 59.48-40.7 82.17 7.16 4.27 16.29 5.55 27.38 3.84 11.27-2.05 19.54-6.05 24.83-12.03 4.95-5.46 9.99-13.4 15.1-23.8 10.59 9.38 21 16.55 31.24 21.5 5.29 2.56 11.1 2.9 17.4 1.02 6.67-1.88 10.67-5.29 12.04-10.24-21.85-11.43-39.34-22.44-52.48-33.02ZM1288.64 452.48l-1.28 25.1 112.13-1.03-1.8-23.55-109.05-.52Z" class="st5"/><path d="M1309.12 449.16c4.78-1.7 8.1-4.61 9.99-8.7 1.87-4.27 2.13-9.05.77-14.34-1.54-5.46-4.79-11.44-9.73-17.92l-22.27 11 21.24 29.96Z" class="st2"/><path d="m1309.9 369.54-4.1 18.69 71.42 3.84-.77-18.18c-19.45-1.7-41.64-3.15-66.56-4.35Z" class="st5"/><path d="m1343.68 395.4-23.04 7.93 16.13 30.21c5.46-1.02 9.39-3.58 11.78-7.68 2.38-4.26 2.81-9.3 1.28-15.1a53.76 53.76 0 0 0-6.15-15.36ZM1371.59 447.62c8.19-2.39 14.42-7.5 18.68-15.36 3.24-5.46 5.98-12.03 8.2-19.71l-32-9.47c-3.76 12.12-9.47 26.45-17.16 43 7.51 3.08 14.94 3.59 22.28 1.54Z" class="st2"/></g></g><g id="_图层_3" data-name="图层_3"><path d="M679.46 595.45c-.96-4.26-3.24-7.68-6.84-7.68-4.32 0-8.16 4.14-8.16 13.62 0 9.9 3.6 13.8 8.16 13.8 3.6 0 6.9-3.48 7.38-8.7l17.28.6c0 12.72-7.86 19.02-22.32 19.02-12.12 0-21.12-9.54-21.12-24.72 0-14.88 9.24-24.54 19.98-24.54 12.66 0 18.96 3.54 22.8 13.98l-17.16 4.62ZM702.86 624.9V591.5h9.18v3.54c1.92-2.88 5.88-4.32 13.08-4.32v15.78a11.28 11.28 0 0 0-5.94-1.74c-3 0-5.52 1.32-6.42 3.54v16.62h-9.9ZM728.24 627.49c6.6 0 7.86-.54 9-4.08l-10.14-31.86h8.82l4.32 13.74a41.91 41.91 0 0 1 1.68 7.74h.12c.3-2.64.84-5.58 1.32-7.62l3.12-13.86h16.74l-10.32 34.14c-2.7 9-8.52 11.4-23.22 11.4l-1.44-9.6ZM767.3 636.43v-45h8.22v3.42c1.44-2.4 6.24-4.14 11.4-4.14 8.88 0 15.96 6.06 15.96 17.46 0 11.52-7.14 17.46-15.9 17.46-5.04 0-9.06-1.26-10.68-3.72v14.52h-9Zm8.82-23.04c.66 2.34 2.52 4.14 4.8 4.14 3.24 0 5.22-3.12 5.22-9.36 0-6.06-1.86-9.06-5.28-9.06-2.22 0-4.74 2.76-4.74 6.6v7.68ZM827.6 625.63c-11.82 0-17.34-2.34-17.34-10.8v-12.84h-3.6v-10.5h4.08v-10.44h10.08v10.44h6.84v10.5h-6.84v5.76c0 4.38 1.92 4.5 8.64 4.5l-1.86 13.38ZM852.08 625.63c-10.92 0-18.24-6.84-18.24-17.4 0-10.62 7.32-17.52 18.24-17.52 10.92 0 18.12 6.9 18.12 17.52 0 10.56-7.2 17.4-18.12 17.4Zm1.98-17.4c0-5.64-2.1-9.12-5.52-9.12-3.06 0-5.52 3.48-5.52 9.12 0 5.64 2.28 9.18 5.52 9.18 3.42 0 5.52-3.48 5.52-9.18ZM898.34 624.9v-46.79h13.14v46.8h-13.14ZM951.98 625.27c-1.02.24-2.28.36-3.72.36-5.04 0-11.64-1.38-12.18-3.78-1.74 2.76-5.28 3.78-9.12 3.78-5.16 0-9.18-3.48-9.18-9.18v-.18c0-6.12 2.64-9.72 9.36-11.7 3.48-1.02 5.7-2.04 5.7-3.42 0-1.92-.9-2.34-3.48-2.34-2.16 0-6 2.04-7.68 4.86l-3.3-7.44c2.64-3.54 8.94-5.52 15.3-5.52 10.62 0 15.66 3.84 15.66 11.22v10.8c0 1.74.54 2.52 2.52 2.52.6 0 1.32-.06 2.16-.18l-2.04 10.2Zm-18.9-16.56a14.8 14.8 0 0 1-3.84 2.16c-1.8.78-2.7 2.04-2.7 4.32 0 1.62.9 2.64 2.52 2.64 1.74 0 3.54-1.5 4.02-3.84v-5.28ZM957.62 624.9v-46.79h9v16.74c1.44-2.4 5.46-4.14 10.62-4.14 8.88 0 15.96 6.06 15.96 17.46 0 11.52-7.32 17.46-15.9 17.46-5.04 0-10.02-1.8-11.64-4.38l-1.38 3.66h-6.66Zm8.82-11.51c.66 2.34 2.52 4.14 4.8 4.14 3.24 0 5.22-3.12 5.22-9.36 0-6.06-1.86-9.06-5.28-9.06-2.22 0-4.74 2.76-4.74 6.6v7.68ZM1021.16 636.43v-45h8.22v3.42c1.44-2.4 6.24-4.14 11.4-4.14 8.88 0 15.96 6.06 15.96 17.46 0 11.52-7.14 17.46-15.9 17.46-5.04 0-9.06-1.26-10.68-3.72v14.52h-9Zm8.82-23.04c.66 2.34 2.52 4.14 4.8 4.14 3.24 0 5.22-3.12 5.22-9.36 0-6.06-1.86-9.06-5.28-9.06-2.22 0-4.74 2.76-4.74 6.6v7.68ZM1063.1 624.9V591.5h9.18v3.54c1.92-2.88 5.88-4.32 13.08-4.32v15.78a11.28 11.28 0 0 0-5.94-1.74c-3 0-5.52 1.32-6.42 3.54v16.62h-9.9ZM1107.14 625.63c-10.92 0-18.24-6.84-18.24-17.4 0-10.62 7.32-17.52 18.24-17.52 10.92 0 18.12 6.9 18.12 17.52 0 10.56-7.2 17.4-18.12 17.4Zm1.98-17.4c0-5.64-2.1-9.12-5.52-9.12-3.06 0-5.52 3.48-5.52 9.12 0 5.64 2.28 9.18 5.52 9.18 3.42 0 5.52-3.48 5.52-9.18ZM1125.8 628.2h.42c5.28 0 6.3-1.25 6.3-5.21v-31.5h12.9v33.72c0 8.58-2.82 11.76-17.16 11.76l-2.46-8.76Zm6.54-40.73v-9.36h13.26v9.36h-13.26ZM1160.78 612.07c.24 2.76 2.82 5.1 5.4 5.1 3.12 0 4.68-1.26 5.22-4.5h14.88c-.66 8.16-6.72 12.96-17.88 12.96-9.54 0-16.5-6.78-16.5-17.46 0-10.08 6.9-17.46 16.32-17.46 12.6 0 18.36 6.24 18.36 18.24l-25.8 3.12Zm9.6-8.22c-.12-3-1.98-4.86-4.98-4.86-2.46 0-4.74 2.52-4.74 6.18l9.72-1.32ZM1209.32 605.83c-.18-3.48-1.74-6.18-4.32-6.18-2.82 0-4.8 3-4.8 8.4 0 5.82 1.68 9 4.68 9 2.46 0 4.32-2.4 4.68-7.5l15.3.96c-.54 10.8-6.12 15.12-17.4 15.12-9.72 0-16.38-5.94-16.38-17.46 0-10.68 6.42-17.46 16.26-17.46 10.02 0 16.08 4.38 17.4 12.54l-15.42 2.58ZM1248.55 625.63c-11.81 0-17.33-2.34-17.33-10.8v-12.84h-3.6v-10.5h4.08v-10.44h10.08v10.44h6.84v10.5h-6.84v5.76c0 4.38 1.92 4.5 8.64 4.5l-1.87 13.38ZM222.41 585.08c-1.54-8.7-6.02-14.46-12.42-14.46-7.42 0-10.75 2.94-10.75 8.06 0 6.27 9.73 10.63 22.53 11.4 24.83 1.53 40.58 10.62 40.58 33.02 0 20.6-13.7 32.39-40.7 32.39-25.22 0-39.43-9.73-43.91-26.12l14.2-9.85c3.46 11.26 10.76 14.85 17.8 14.85 7.42 0 11.52-3.85 11.52-9.99 0-11.65-11.52-12.67-21.63-17.66-13.19-6.4-18.44-12.68-18.44-26.76 0-16.13 14.98-29.57 35.72-29.57 23.42 0 36.99 6.27 43.77 28.04l-38.27 6.65ZM293.96 652.93v-33.54l-25.09-66.3h19.2l15.62 38.78 15.74-38.79h42.24l-30.08 66.44v33.4h-37.63ZM409.16 585.08c-1.54-8.7-6.02-14.46-12.42-14.46-7.42 0-10.75 2.94-10.75 8.06 0 6.27 9.73 10.63 22.53 11.4 24.83 1.53 40.58 10.62 40.58 33.02 0 20.6-13.7 32.39-40.7 32.39-25.22 0-39.43-9.73-43.91-26.12l14.2-9.85c3.46 11.26 10.76 14.85 17.8 14.85 7.42 0 11.52-3.85 11.52-9.99 0-11.65-11.52-12.67-21.63-17.66-13.19-6.4-18.44-12.68-18.44-26.76 0-16.13 14.98-29.57 35.72-29.57 23.42 0 36.99 6.27 43.77 28.04l-38.27 6.65ZM513.74 553.08h40.96v65.28c0 22.28-17.8 37.13-48.64 37.13-22.4 0-38.8-15.1-38.8-37.13v-65.28h21.51v63.24c0 13.44 5.5 18.43 12.16 18.43 7.17 0 12.8-5 12.8-18.43v-63.24ZM578.37 621.82l-3.7-68.74h40.06c-7.04 20.35-10.63 49.54-12.93 68.74h-23.43Zm-3.2 31.1v-22.27h32.39v22.28h-32.39ZM73.22 568.32l72.56 82.56-110.53-23.62 37.97-58.94zM1352.32 566.51l33.93 61.35-107.08 24.82" class="st5"/></g></svg>