<svg xmlns="http://www.w3.org/2000/svg" id="_图层_1" data-name="图层 1" version="1.1" viewBox="0 0 1468.5 464.51"><defs><style>.cls-1,.cls-3{fill:#39ad70;stroke-width:0}.cls-3{fill:#2b8254}</style></defs><path d="M1468.16 110.81a24.98 24.98 0 0 0-3.4-12.35c.8-2.37 1.26-4.9 1.32-7.53l.18-9.18c.01-.6 0-1.2-.03-1.8l-.5-9.44a25 25 0 0 0-24.18-23.68 25 25 0 0 0-21.97-22.28l-10.67-1.25c-1.23-.14-2.47-.2-3.7-.15l-11.87.38a25 25 0 0 0-21.68 14.05 24.9 24.9 0 0 0-13-6.02l-8.78-1.26c-1.36-.2-2.73-.28-4.1-.25l-11.2.24a25 25 0 0 0-24.19 21.32 25 25 0 0 0-17.32 24.79l.35 9.03.04.74.63 9.04c.13 1.9.48 3.75 1 5.5a24.97 24.97 0 0 0-3.23.08l-11.17 1c-.8.07-1.6.18-2.4.33l-42.87 8.08-.8.17-6.65 1.48 1.43-8.88a25 25 0 0 0-11-24.88l-4.1-2.7a25 25 0 0 0-9.6-3.74l-22.5-3.74-.96-.14-15.23-1.93-7.89-1.3a25 25 0 0 0-5.08-.31l-2.4.1a25 25 0 0 0-25.66-4.38l-11.15 4.43-13.33 4.44-7.53 1.71c-1.53.35-2.99.83-4.38 1.43l-.02-.08a27 27 0 0 0-.15-.69l-4.26-18.26a25 25 0 0 0-17.95-18.49l-3.64-.96a25 25 0 0 0-10.13-.55l-11 1.66c-.56.09-1.11.2-1.67.31l-33.67 7.46c-1.53.34-3.02.82-4.45 1.43l-1.12.3-6.01 1.78a24.92 24.92 0 0 0-8.68 4.55l-3.48-1.06a25 25 0 0 0-30.32 14.23l-3.33 7.91c-.14.34-.26.68-.39 1.03a25 25 0 0 0-17.42-5.33l-17.76 1.35a24.96 24.96 0 0 0-19.01 11.24 68.9 68.9 0 0 0-23.18-41.31 69.15 69.15 0 0 0-50.7-16.43 69.17 69.17 0 0 0-47.6 23.93 68.63 68.63 0 0 0-15.3 31.54 24.94 24.94 0 0 0-16.78-6l-.84.02 1.85-9a25 25 0 0 0-28.1-29.77l-22.33 3.26c-.56.09-1.12.19-1.67.3l-20.4 4.42a25 25 0 0 0-19.7 23.3l-.2 4.33a25 25 0 0 0-24.04 26.84l.56 7.6-8.12-4.6a25 25 0 0 0-7.84-2.82l-30.1-5.46c-.92-.16-1.84-.28-2.77-.34a25 25 0 0 0-17.66-5.18l-15.13 1.4-17.46-.66a25 25 0 0 0-25.89 23.52l-1.2 20.36-19.97-9.16a25 25 0 0 0-33.84 13.99l-8.95 23.98-7.51 14.62-28.51-36.92 10.9-14.55a25 25 0 0 0 2.06-26.71l-9.83-18.5a25 25 0 0 0-19.43-13.14l-31.15-3.31a25 25 0 0 0-10.2 1.03l-21.47 6.81-.27-.14a25 25 0 0 0-22.49-.51l-18.44 8.77-18.77 5.36c-1.63.46-3.19 1.1-4.67 1.86l1.31-3.34c0-.03.02-.05.03-.08l6.84-17.65a25 25 0 0 0-11.9-31.28l-18.1-9.28a25 25 0 0 0-9.4-2.67l-51.2-4.14c-3.75-.3-7.52.25-11.03 1.6l-54.45 21.05a25 25 0 0 0-7.77 4.8L63.76 75.54A25 25 0 0 0 56 89.25l-9.77 49.72a25 25 0 0 0-.06 9.34l8.42 45.75a25 25 0 0 0 4.21 9.96l34.78 48.9-7.34-2.39c-1.23-.4-2.49-.7-3.77-.9l-7.97-1.3a24.98 24.98 0 0 0-28.62 20.5l-2.18-.12c-.98-.05-1.96-.05-2.94.02l-7.66.5A25 25 0 0 0 9.75 293.3l-.4 11.62-1.37 14.3-.04.52-.87 11.72a25 25 0 0 0 22.21 26.7l6.4.7c.3.1.63.18.95.27a25 25 0 0 0 18.33 24.21l7.98 2.21.63.17 8.1 2.01a24.95 24.95 0 0 0 17.24-1.91l-.02.2-.02.3-.54 6.75c-.16 1.96-.08 3.93.22 5.86l.59 3.77a25 25 0 0 0 22.32 21.01l15.12 1.44 27.62 3.99a25.02 25.02 0 0 0 8.56 2.75l14.05 1.82a24.92 24.92 0 0 0 17.68-4.43l.93.6 8.7 5.2a24.98 24.98 0 0 0 32.97-6.62l11.97-16.23.55-.78 8.4 5.52c1.1.72 2.26 1.35 3.46 1.9l10.5 4.72a25 25 0 0 0 28.94-6.18l4.5-5.06c.89-1 1.7-2.08 2.42-3.2l.2-.32 6.72 1.85a24.99 24.99 0 0 0 9.12.78l9.58-.96a25 25 0 0 0 13.3-5.49l5.73-4.66a25 25 0 0 0 3.97-4.06l4.49.93a24.89 24.89 0 0 0-.72 11.58l1.1 6.3c.18 1 .41 1.98.7 2.95l1.84 6.07a25 25 0 0 0 29.83 17.05l9.1-2.21c.3.26.6.52.9.76l5.28 4.33a24.94 24.94 0 0 0 29.3 1.72c.5.16 1 .3 1.52.41l6.5 1.52c2.3.53 4.67.74 7.03.61l11.51-.62a25 25 0 0 0 8.2-1.86l5.48-2.27a25 25 0 0 0 12.6-11.5l2.4-4.59a25 25 0 0 0 2.82-10.32l.44-8.49a24.97 24.97 0 0 0-5.39-16.82l-.1-7.79.18.04a25 25 0 0 0 17.73-3.09 25.01 25.01 0 0 0 6.15 4.03l5.84 2.7a24.98 24.98 0 0 0 10 2.29l7.25.13h.48c1.42 0 2.82-.12 4.2-.36l.43 1.85c.35 1.57.86 3.1 1.5 4.58l1.48 3.35a25 25 0 0 0 26.35 14.69l30.38-4.23.21-.03 2.75-.4c2 .19 4.03.15 6.06-.15l6.09-.9.32-.04 6.08-.98a25 25 0 0 0 21.04-25.32 24.85 24.85 0 0 0 7.56.14l3.72-.5.69-.1.51-.09.11-.02.2-.03.32-.06 10.8-1.92 2.57-.21c1.1-.1 2.2-.26 3.27-.49l7.25-1.58a24.96 24.96 0 0 0 7.38-2.87 24.96 24.96 0 0 0 18.13 5.63l8.2-.73c2.12-.19 4.21-.65 6.22-1.37l6.63-2.37a24.99 24.99 0 0 0 9.97-6.63c.26.04.5.1.77.13a25 25 0 0 0 14.39 13.55l2.57.94c2.14.77 4.37 1.25 6.63 1.43l10.16.78a24.74 24.74 0 0 0 9.1-.98l7.38-2.2a25 25 0 0 0 12.01-7.93l3.79-4.53c.52-.63 1.02-1.29 1.48-1.96h.88l.33.01a25 25 0 0 0 21.47-12.2c2.22 0 4.46-.29 6.68-.9l10.98-3.1c1.11-.31 2.2-.7 3.27-1.17l4.25 3.97a25 25 0 0 0 22.76 6.08l1.46 5.8c.4 1.6.97 3.16 1.68 4.65l1.77 3.7a25.03 25.03 0 0 0 23.8 14.2 24.97 24.97 0 0 0 17.87 5.46l6.63-.57a25 25 0 0 0 6.78-1.57l.58-.21a25 25 0 0 0 7.8-.66l8.5-2.08 9.96-1.82 7.63-1.16 7.92-.65a24.9 24.9 0 0 0 13.34-5.23l4.8 60.68a25 25 0 0 0 28.74 22.74l172.7-26.76a25 25 0 0 0 18.16-36.6l-5.5-10.16-1.88-11.38 1.54-.64a25 25 0 0 0 17.88 7.13l28.76-.46-2.3 22.17a25 25 0 0 0 21.13 27.3l17.4 2.63c.4.06.81.1 1.22.15l17.43 1.76c2.04.2 4.08.16 6.08-.13 1.3.32 2.61.54 3.95.66l26.17 2.2a25.02 25.02 0 0 0 6.28-.27l31.8-5.4a25 25 0 0 0 16.87-11.16l19.03-29.7a25 25 0 0 0 3.95-13.35l.2-38.54a25 25 0 0 0-3.34-12.6l-16.1-27.97a25 25 0 0 0-10.75-10.02l-28.22-13.69c-3.7-1.8-7.8-2.65-11.92-2.49l-7.57.3-.84-23.5a25 25 0 0 0-22.63-24l-20.06-1.9a25 25 0 0 0-5.7.12l-4.94.67v-.07c1.04-.1 2.07-.28 3.1-.51l10.64-2.47c1.78-.41 3.5-1.02 5.15-1.8l5.66-2.71a25 25 0 0 0 13.67-27.72l-1.38-6.53-2.17-11.94 12.43-1.58 11.56-1.4a25 25 0 0 0 22.97 15.53l8.23.06a20.17 20.17 0 0 0 1.75-.05l6.88-.44 11.49-.1 26.78.27 9.9.17a25 25 0 0 0 25.44-24.82l.1-16.18v-.42l-.33-35.07Z" class="cls-1"/><path d="M1461.16 96.81a24.98 24.98 0 0 0-3.4-12.35c.8-2.37 1.26-4.9 1.32-7.53l.18-9.18c.01-.6 0-1.2-.03-1.8l-.5-9.44a25 25 0 0 0-24.18-23.68 25 25 0 0 0-21.97-22.28l-10.67-1.25c-1.23-.14-2.47-.2-3.7-.15l-11.87.38a25 25 0 0 0-21.68 14.05 24.9 24.9 0 0 0-13-6.02l-8.78-1.26c-1.36-.2-2.73-.28-4.1-.25l-11.2.24a25 25 0 0 0-24.19 21.32 25 25 0 0 0-17.32 24.79l.35 9.03.04.74.63 9.04c.13 1.9.48 3.75 1 5.5a24.97 24.97 0 0 0-3.23.08l-11.17 1c-.8.07-1.6.18-2.4.33l-42.87 8.08-.8.17-6.65 1.48 1.43-8.88a25 25 0 0 0-11-24.88l-4.1-2.7a25 25 0 0 0-9.6-3.74l-22.5-3.74-.96-.14-15.23-1.93-7.89-1.3a25 25 0 0 0-5.08-.31l-2.4.1a25 25 0 0 0-25.66-4.38l-11.15 4.43-13.33 4.44-7.53 1.71c-1.53.35-2.99.83-4.38 1.43l-.02-.08a27 27 0 0 0-.15-.69l-4.26-18.26a25 25 0 0 0-17.95-18.49l-3.64-.96a25 25 0 0 0-10.13-.55l-11 1.66c-.56.09-1.11.2-1.67.31l-33.67 7.46c-1.53.34-3.02.82-4.45 1.43l-1.12.3-6.01 1.78a24.92 24.92 0 0 0-8.68 4.55l-3.48-1.06a25 25 0 0 0-30.32 14.23l-3.33 7.91c-.14.34-.26.68-.39 1.03a25 25 0 0 0-17.42-5.33l-17.76 1.35a24.96 24.96 0 0 0-19.01 11.24 68.9 68.9 0 0 0-23.18-41.31 69.15 69.15 0 0 0-50.7-16.43 69.17 69.17 0 0 0-47.6 23.93 68.63 68.63 0 0 0-15.3 31.54 24.94 24.94 0 0 0-16.78-6l-.84.02 1.85-9a25 25 0 0 0-28.1-29.77l-22.33 3.26c-.56.09-1.12.19-1.67.3l-20.4 4.42a25 25 0 0 0-19.7 23.3l-.2 4.33a25 25 0 0 0-24.04 26.84l.56 7.6-8.12-4.6a25 25 0 0 0-7.84-2.82l-30.1-5.46c-.92-.16-1.84-.28-2.77-.34a25 25 0 0 0-17.66-5.18l-15.13 1.4-17.46-.66a25 25 0 0 0-25.89 23.52l-1.2 20.36-19.97-9.16a25 25 0 0 0-33.84 13.99l-8.95 23.98-7.51 14.62-28.51-36.92 10.9-14.55a25 25 0 0 0 2.06-26.71l-9.83-18.5a25 25 0 0 0-19.43-13.14l-31.15-3.31a25 25 0 0 0-10.2 1.03l-21.47 6.81-.27-.14a25 25 0 0 0-22.49-.51l-18.44 8.77-18.77 5.36c-1.63.46-3.19 1.1-4.67 1.86l1.31-3.34c0-.03.02-.05.03-.08l6.84-17.65a25 25 0 0 0-11.9-31.28l-18.1-9.28a25 25 0 0 0-9.4-2.67L167.57.08c-3.75-.3-7.52.25-11.03 1.6l-54.45 21.05a25 25 0 0 0-7.77 4.8L56.76 61.54A25 25 0 0 0 49 75.25l-9.77 49.72a25 25 0 0 0-.06 9.34l8.42 45.75a25 25 0 0 0 4.21 9.96l34.78 48.9-7.34-2.39c-1.23-.4-2.49-.7-3.77-.9l-7.97-1.3a24.98 24.98 0 0 0-28.62 20.5l-2.18-.12c-.98-.05-1.96-.05-2.94.02l-7.66.5A25 25 0 0 0 2.75 279.3l-.4 11.62-1.37 14.3-.04.52-.87 11.72a25 25 0 0 0 22.21 26.7l6.4.7c.3.1.63.18.95.27a25 25 0 0 0 18.33 24.21l7.98 2.21.63.17 8.1 2.01a24.95 24.95 0 0 0 17.24-1.91l-.02.2-.02.3-.54 6.75c-.16 1.96-.08 3.93.22 5.86l.59 3.77a25 25 0 0 0 22.32 21.01l15.12 1.44 27.62 3.99a25.02 25.02 0 0 0 8.56 2.75l14.05 1.82a24.92 24.92 0 0 0 17.68-4.43l.93.6 8.7 5.2a24.98 24.98 0 0 0 32.97-6.62l11.97-16.23.55-.78 8.4 5.52c1.1.72 2.26 1.35 3.46 1.9l10.5 4.72a25 25 0 0 0 28.94-6.18l4.5-5.06c.89-1 1.7-2.08 2.42-3.2l.2-.32 6.72 1.85a24.99 24.99 0 0 0 9.12.78l9.58-.96a25 25 0 0 0 13.3-5.49l5.73-4.66a25 25 0 0 0 3.97-4.06l4.49.93a24.89 24.89 0 0 0-.72 11.58l1.1 6.3c.18 1 .41 1.98.7 2.95l1.84 6.07a25 25 0 0 0 29.83 17.05l9.1-2.21c.3.26.6.52.9.76l5.28 4.33a24.94 24.94 0 0 0 29.3 1.72c.5.16 1 .3 1.52.41l6.5 1.52c2.3.53 4.67.74 7.03.61l11.51-.62a25 25 0 0 0 8.2-1.86l5.48-2.27a25 25 0 0 0 12.6-11.5l2.4-4.59a25 25 0 0 0 2.82-10.32l.44-8.49a24.97 24.97 0 0 0-5.39-16.82l-.1-7.79.18.04a25 25 0 0 0 17.73-3.09 25.01 25.01 0 0 0 6.15 4.03l5.84 2.7a24.98 24.98 0 0 0 10 2.29l7.25.13h.48c1.42 0 2.82-.12 4.2-.36l.43 1.85c.35 1.57.86 3.1 1.5 4.58l1.48 3.35a25 25 0 0 0 26.35 14.69l30.38-4.23.21-.03 2.75-.4c2 .19 4.03.15 6.06-.15l6.09-.9.32-.04 6.08-.98a25 25 0 0 0 21.04-25.32 24.85 24.85 0 0 0 7.56.14l3.72-.5.69-.1.51-.09.11-.02.2-.03.32-.06 10.8-1.92 2.57-.21c1.1-.1 2.2-.26 3.27-.49l7.25-1.58a24.96 24.96 0 0 0 7.38-2.87 24.96 24.96 0 0 0 18.13 5.63l8.2-.73c2.12-.19 4.21-.65 6.22-1.37l6.63-2.37a24.99 24.99 0 0 0 9.97-6.63c.26.04.5.1.77.13a25 25 0 0 0 14.39 13.55l2.57.94c2.14.77 4.37 1.25 6.63 1.43l10.16.78a24.74 24.74 0 0 0 9.1-.98l7.38-2.2a25 25 0 0 0 12.01-7.93l3.79-4.53c.52-.63 1.02-1.29 1.48-1.96h.88l.33.01a25 25 0 0 0 21.47-12.2c2.22 0 4.46-.29 6.68-.9l10.98-3.1c1.11-.31 2.2-.7 3.27-1.17l4.25 3.97a25 25 0 0 0 22.76 6.08l1.46 5.8c.4 1.6.97 3.16 1.68 4.65l1.77 3.7a25.03 25.03 0 0 0 23.8 14.2 24.97 24.97 0 0 0 17.87 5.46l6.63-.57a25 25 0 0 0 6.78-1.57l.58-.21a25 25 0 0 0 7.8-.66l8.5-2.08 9.96-1.82 7.63-1.16 7.92-.65a24.9 24.9 0 0 0 13.34-5.23l4.8 60.68a25 25 0 0 0 28.74 22.74l172.7-26.76a25 25 0 0 0 18.16-36.6l-5.5-10.16-1.88-11.38 1.54-.64a25 25 0 0 0 17.88 7.13l28.76-.46-2.3 22.17a25 25 0 0 0 21.13 27.3l17.4 2.63c.4.06.81.1 1.22.15l17.43 1.76c2.04.2 4.08.16 6.08-.13 1.3.32 2.61.54 3.95.66l26.17 2.2a25.02 25.02 0 0 0 6.28-.27l31.8-5.4a25 25 0 0 0 16.87-11.16l19.03-29.7a25 25 0 0 0 3.95-13.35l.2-38.54a25 25 0 0 0-3.34-12.6l-16.1-27.97a25 25 0 0 0-10.75-10.02l-28.22-13.69c-3.7-1.8-7.8-2.65-11.92-2.49l-7.57.3-.84-23.5a25 25 0 0 0-22.63-24l-20.06-1.9a25 25 0 0 0-5.7.12l-4.94.67v-.07c1.04-.1 2.07-.28 3.1-.51l10.64-2.47c1.78-.41 3.5-1.02 5.15-1.8l5.66-2.71a25 25 0 0 0 13.67-27.72l-1.38-6.53-2.17-11.94 12.43-1.58 11.56-1.4a25 25 0 0 0 22.97 15.53l8.23.06a20.17 20.17 0 0 0 1.75-.05l6.88-.44 11.49-.1 26.78.27 9.9.17a25 25 0 0 0 25.44-24.82l.1-16.18v-.42l-.33-35.07Z" style="fill:#fff;stroke-width:0"/><path d="m227.82 56.07-9.44 24.12-19.04-7.53-25.68.94-22.54 2.57-26.61 18.14-10.57 38.51 15.78 41.23 29.22 21.74 28.72 7.01 34.42-11.69 24.73-18.1 14.51 17.19 13.67 12.62-13.39 16.33L243.74 230l-46.81 14.6-46.92 2.02-42.73-21.46-35.3-49.63-8.4-45.74 9.76-49.72 37.56-34.02L165.35 25l51.2 4.14 18.1 9.28-6.83 17.65Z" class="cls-1"/><path d="m282.1 84.77 20.3-9.67 2 13.36 15.53-10.8 23.53-7.46 31.14 3.31 9.83 18.5-19.73 26.35-23.26-14.2-31.96 15.4 2.57 19.1 13.84 56.17 2.23 6.45-22.04 5.91-22.36 4.2-3.7-56.29-8.07-37.65-10.62-26.75 20.76-5.93Z" class="cls-3"/><path d="m357.55 146.43 13.47-13.14 31.7 41.05 23.8 30.16 25.96-50.53 9.46-25.36 21.37 9.8 15.5 5.5-67.84 136.48L415 309.04l-14.13-4.11-21.46-10.79 28.86-55.03-35.76-44.74-21.8-27.31-8.9-10.56 15.74-10.07Z" class="cls-1"/><path d="m537.56 96.86 16.74-1.54-.08 5.47 13.76-.25 30.1 5.46 19.09 10.77 14.42 26.39-2.72 35.17-18.9 28.58-35.08 11.93-34.85-4.48-6.03-2.01-.49 2.65-3.28 33.24-24.06-3.44-15.21-1.85 13.9-51.43L516.72 126l1.76-29.86 19.07.72Zm1.42 85.53 17.87 4.83 30.66-2.67 10.2-31.07-12.73-20.6-34.36-4.62-7.4 28.15-4.24 25.98Z" class="cls-3"/><path d="m705.02 67.2-1.97 15.4 10.76.34 20.1-.43-2.18 14.88 1.9 14.2-30.07-.37-4.26-.08-1.98 15.64.62 43.18 11.41 7.92 20.33-3.41.3 9.05 8.55 18.72-8.52 6.36-37.36 3.08-24.21-10.93-11.16-23.95 7-63.65.15-1.74-21.08.1.5-19.03-.98-13.11 22.93 1.8 1.36-29.99 20.4-4.4 22.33-3.27-4.87 23.7Zm333.88 142.6 10.92 1.46 5.97 83.4 6.34 76.28 115.16-12.52 4.39 26.5 7.48 13.83-172.7 26.76-7.77-98.53-16.83-107.57 47.04-9.61Z" class="cls-1"/><path d="m1221.68 226.28 29.51 9.25-2.6 13.9-1.32 40.26 5.9 56.64-30.38.49-5.82-13.98-23.2 9.56-40.4-4.97-21.49-24.95.75-44.19 28.24-32.83 29.14-6.98 30.23 6.34 1.44-8.54Zm-57.82 49.82-1.67 21.29 13.4 13.51 25.53-5.02 12.79-7.76 1.71-29.5-19.61-7.67-16.27.83-15.88 14.32Z" class="cls-3"/><path d="m1297.39 238.7 20.05 1.89 1.8 50.9 13.28-2.83 19.32-.78 28.21 13.7 16.1 27.97-.2 38.53-19.02 29.7-31.8 5.4-26.18-2.2-9.42-4.2-.01.21-.18 3.5-17.43-1.76-17.38-2.63 5.14-49.68 3.92-60.24-.32-45.57 14.12-1.91Zm15.52 130.21 17.95 4.63 22.85-1.47 12.2-16.02-6.5-27.49-12.75-7.65-20.14-.15-9.32 2.38-1.75 25.97-2.54 19.8Z" class="cls-1"/><path d="M873 91.08a17.87 17.87 0 0 1 19.12 16.4l6.78 88.82a17.87 17.87 0 0 1-16.4 19.11l-106.58 8.14a17.87 17.87 0 0 1-19.12-16.4l-6.78-88.81a17.87 17.87 0 0 1 16.4-19.12l79.93-6.1L845 75.34c-1.16-15.1-13.58-25.76-28.68-24.61-15.1 1.15-25.76 13.58-24.61 28.68l-17.76 1.36a44.1 44.1 0 0 1 41.01-47.8 44.1 44.1 0 0 1 47.8 41.01l1.36 17.76 8.88-.67m-47.18 84a17.87 17.87 0 0 0 16.4-19.12 17.87 17.87 0 0 0-19.12-16.4 17.87 17.87 0 0 0-16.4 19.11 17.87 17.87 0 0 0 19.12 16.4m103.86-43.66-17.76 1.36-4.07-53.29 17.76-1.35 4.07 53.28m2.71 35.53-17.76 1.35-1.36-17.76 17.76-1.35 1.36 17.76ZM35.2 279.68l9.08.47v.1c.94.11 2.43.22 4.48.34l4.6.25 8.23.8c.34-5.04.92-12.57 1.75-22.62l7.97 1.28 9.03 2.94-2.9 20.02 2.12.24 16.52 2.1 11.15 1.33 3.72 3.6-1.54 14.1-3.42 24.7-8.4-1.23-8.9-1.28.02-.1-5.22-.63a143.4 143.4 0 0 1-5.21-.72l-5.59-.61-1.44 14.12-.75 10.6-8.1-2.01-7.97-2.21 2.49-19.96.24-2.24-1.93-.2c-3.19-.29-8-.78-14.42-1.48l-.04.3a21.38 21.38 0 0 1-3.12-.54l-2.03-.23.02-.2-3.43-.58-7.4-.8.86-11.73 1.44-15.04.43-12.39 7.65-.5Zm11.78 29.43 11.67 1.27 1.67-13.37-11.17-1.22-6.43-.4-.92 10.28c-.13 1.22-.2 2.13-.2 2.75l5.38.69Zm43.84 2.02 1.47-10.63-14-1.63-2.74-.3-1.57 13.49c3.64.47 9.12 1.1 16.43 1.9.14-1.29.28-2.23.41-2.83Z" class="cls-3"/><path d="m173.28 354.34 7.07 2.34-3.19 15.87-1.66 8.1-2.7 14.28-6.71-.87-7.29-.95.2-1.23-2.25-.6-16.18-2.31-18.22-2.64-15.71-1.5-.6-3.76.55-6.76.97-10.7 1.6-17.46 7.2-.15 7 .16-1.5 15.21-1.37 12.65 8.86 1.03 4.49.7 2.4-14.5 4.22-26.99 1.52-11.46 5.33 1.16 8.25 2.27-3.2 18.13-4.24 27.57-.58 5.92 8.48 1.3 4.98.77 4.28-22.39.84-4.96 7.16 1.77Z" class="cls-1"/><path d="m224.88 311.81 7.35-.58 2.96 20.7 3.51-.85 26.73-6.05 1.96 5.86.94 9.48-14.68 2.26-11.82 2.54 3.44 3.45 8.54 7.74 13.18 8.83 17.53 8.7-5 7.85-4.5 5.06-10.48-4.72-15.68-10.3-13.17-10.63-3.14-3.5-1.64 7.22-9.18 18.54-11.96 16.24-8.7-5.21-3.81-3.77 10.95-15.42 6.65-13.1 2.9-11.6c-5.11 1.3-12.72 3.17-22.84 5.61l-2.76-8.18-1.25-5.82 10.26-2.4a707.13 707.13 0 0 0 17.48-4.07l-.38-5.9-2.9-17.23 9.5-.75Z" class="cls-3"/><path d="m353.59 287.72 8.08 3.5-4.48 6.55-5.94 5.88 5.65 1.18 5.94 2.6 6.3 5.28-2.27 8.3-4.1 12.79-7.6-2.05-7.8-2.71 3.31-10.63-13.98-3.26-20.84-3.6-19.51-2.76c-.2.74-.42 1.81-.67 3.24l-1.47 7.9-8.36-2.49-6.28-2.45 2.95-13.4 1.33-8.88 7.44 1.18 6.7 1.79 2.74.47-1.53-4.45-4.57-8.64 5.86-1.81 8.86-2.23 2.19 6.13 3.44 10.96-5.8.88c-.43 0-.83.1-1.21.31 2.23.39 3.93.65 5.1.78 1.57.2 4 .45 7.3.74l-2.25-8.76-3.2-6.94 7.9-1.46 6.53-.23 2.16 6.86 2.82 9.08-5.41 1.05-3.01 1.05c3.57.34 6.24.62 8.01.86l5.09-4.56 7.71-10.7 6.87 2.65Zm-56.15 46.17 16.7 2.69 1.35-1.13 4.78-4.62-7.27-1.57-10.8-1.66 1.2-6.91.32-6.75 21.74 3.24 8.99 1.87 2.38 5.02 2 8.4-7.17 6.93 12.82 2.12 17.53 3.34-1.41 5.73-1.63 8.2-15.05-3.14-13.55-2.76.91 6.23-1.78 7.85-5.73 4.66-9.58.96-12.29-3.38-2.94-1.77 1.16-6.7-.7-5.57 7.62 2.47 5.95.72 2.1-3.72-.88-4.55-15.16-2.52-20.82-3.08.05-7.53 1.19-5.66 17.97 2.6Z" class="cls-1"/><path d="m380.13 343.05 13.34-1.4 11.86-1.12.72 6.24v7.9l-2.81.2-5.42.47.28 9.38 7.74-.92.9 6.23v6.58l-8.04.57.5 8.42 9.17-1.96 1.5 6.57.7 6.15-13.63 2.56-16.35 3.97-1.84-6.07-1.1-6.32 8.7-1.93-.14-3.28-.38-6.74-6.9.77-1.11-6.4-.22-5.81 7.45-.9-.77-9.63-7.65.82-1.4-6.48-.4-7.02 5.3-.85Zm53.05 11.3 6.36.87-.05 9.96-1.6 12.05-1.26 4.7 4.31-.12 5.32.75-.24 7.26.12 3 .7 3.42 2.25 1.07 2.23-.35.93-1.38.4-2.47-.12-4.22 6.13 2.86 5.94 1.64-.44 8.5-2.4 4.58-5.48 2.27-11.51.62-6.5-1.52-2.9-3.64-1.43-5.73-.5-7.2-3.32 6.25-5.78 7.36-6.73 5.83-5.29-4.33-3.8-5.84 5.78-4.73 4.04-4.04 4.85-7.11 2.44-8.16 1.14-13.05-.58-8.32 6.99-.78Zm9.6-25.02 10.92.08 3.18 1.18 1.17 16.65.98 19.1.17 13.15-8.44.31-5.96-.61.05-14-.67-13.5-.87-8.3-4.8-.22-16.54 1.45.85 16.1 1.44 19.07-6.97 1.15-5.98.42-2.17-29.36-1.4-18.5 5.48-1.05-.01-.1 29.58-3.02Z" class="cls-3"/><path d="m498.65 283.66 5.11 3.85-9.82 15.45-4.74 6.25 5.05 1.7-1.96 13.08-1.74 11.6-1.42 9.99-6.53-1.3-5.5-1.77.92-6.19 2.88-17.12-6.3 6.64-3.94-3.75-4.03-5.27 6.6-7.08 7.14-9.13 7.74-12.05 4.73-8.38 5.8 3.48Zm22.74 10.76-.07 3.94c-.03 1.78-.04 3.14-.02 4.04l2.84.1 10.48.23.36 6.06-.13 5.6-10.09-.25-3.46-.12.32 8.98 1.2 7.78 2.12 5.38 2.25 1.91 2.67-.39 1.96-3.1 2.2 4.84 4.05 4.64-2.84 4.71-3.52 2.4-7.26-.14-5.84-2.7-5.43-6.5-3.04-9.79-1.1-8.47-.23-10.08a25.83 25.83 0 0 0-2.51-.14l-8.8-.37-.2-4.53.17-6.94 11.55.55.3-9.45.69-9.3 6.07.11 6.56.04-1.25 10.96Zm7.5-8.29 4.58-2.08 4.9 6.83 3.34 6.74-6.05 2.42-4.96 1.4-1.07-2.38-2.52-4.81-2.89-4.47 4.66-3.65Z" class="cls-1"/><path d="m568.85 311.86 4.4-.67-.02-.16-.92-6.24 5.81-.07 5.92-.4-.06 3.62c.1.35.2.87.28 1.54a23.9 23.9 0 0 0 2.08-.36l17.58-2.04 4.87.53 5.63 1.52.88 7.2-.52 8.4-6.06-.6-5.39-.3-.02-6.6-13.3 1.15-15.28 2.13-17.2 3.09.06 1.64.38 5.22-6.26.2-5.08-.33-.38-9.31-.28-6.18 6.05-.65 4.7-.16-.02-.15 12.15-2.02Zm-1.65 14.69 4.23-3.09 4.02 7.72 4.97 5.4.5.16c.14-.07.31-.17.5-.3l4.47-5.4 1.11-1.72-3.02 2.14-4.13 2.6-2-2.65-3.12-4.45 3.56-3.4 3.73-2.62 2.57 3.28 2.47 4.94 1.55-2.5 1.74-6.99 4.07 1.03 7.72 1.87-2.53 6.95-.07.09 4.1-1.65 3.44-1.4 3.6 2.74 1.86 2.18 1.01 2.3-4.64 1.18-4.82 1.59 4.25.6 4.15-.15 1.2 3.14-.32 4.05-2.31 2.67-5.29 1.65-4.74.95-12.14-.18-7.1-1.33-10.08 4.58-15.47 4.9-2.68-3.02-2.76-5.92 10.54-2.91-4.82-.77-3.76-.44.77-3.1.39-3.5.31-4.14 6.44-.07 3.97.25-.55 4.72-.98 3.82-1.02 2.97a85.47 85.47 0 0 0 4.48-1.23l4.74-2.13-3.5-3.78-4.87-9.4 4.26-2.23Zm38.35 24.98 6.78.12.17 5.4 1.11 11.8-6.08.98-6.1.9.01-.56-2.8.22-6.02.89-17.14 2.37-13.28 1.86-1.47-3.34-1.17-5.2-1.93-8 6.38-1.64 5.51-.58 1.43 8.3 7.71-1.1 1.32-.18c-.1-1.1-.29-2.7-.57-4.8l-1.3-7.38 4.44-.28 7.61-.15.6 6.29.63 4.63 3.79-.5 5.8-.7-.25-4.22-.62-4.08 5.44-1.05Zm-11.28-11.38 6.35-.15 1.29-.4.65-3.32c.37 0 .8.08 1.29.22a52.33 52.33 0 0 1-1.92-3.2l-2.7-3.1-2.72 5.55-3.92 4.15 1.68.25Z" class="cls-3"/><path d="m633.35 276.43 15-3.23 8.94-1.65 1.35 5.89.73 8.2-11.92 1.82-7.56 1.53-.59.09 4.23.12 3.8 1.19-1.47 13.25 11.37-2.14 5.66-.32 2.14 3.96 2.82 16.17 2.45 17.62-7.26 1.58-3.75.3-11.97 2.14-.2.04-.29.04-.3.05-3.71.5-1.36-5.89-1.15-6.52-1.89 6.92-6.94-3.29-3.88-3.57 3.26-12.05 1.43-8.44.98-11.27-.23-8.88-6.93 1.73-1.69-4.84-1.66-8.44 10.59-2.61Zm21.84 47.73-1.38-7.9-1.62-.13-2.7.64 1.27 9.1 1.28 5.4 2.24-.36 1.65-.36-.74-6.4Zm18.02-64.4 12.71-2.46 10.93-1.16 4.22 5.62 2.07 4.77.74 15.1.54 16.34-9.93.5-4.7-.54-.18-11.69-1.6-14.85-6.04.47-9.6 1.86-9.82 2.49-2.34-5.83-1.7-7.34 14.7-3.28Zm-2.56 69.6-1.3-6.8 8.8-2.52 9.07-2.17 8.2-1.23 1.45 4.58.76 7.18-6.24 1.01-9.13 1.78-9.87 2.7-1.74-4.53Zm3-50.14 5.02.68 1.78 17.84.63 4.5 6.69-1.38 19.25-2.91 3.93 1.36 5.05 3.39 1.5 14.78-1.05 15.19-2.73 5.44-6.62 2.38-8.2.72-1.76-5.32-2.35-4.62 4.56-.94 2.03-1.03 1.12-2.99.2-9.94-.6-4.31-4.4.01-12.12 1.86-8.31 1.85-6.82 1.8-1.9-4.3-.94-7.65.38-.17-.45-5.23-1.3-11.1-1.52-8.77 8.93-1.14Z" class="cls-1"/><path d="m786.56 274.3 6.88 1.5-2.52 5.83-3.76 5.52 4.62.07 5.05 1.14 5.76 3.18-.52 6.86-1.27 10.67-6.28-.45-6.53-.94.97-8.85-11.47-.43-16.9.35-15.75.81c-.04.6-.05 1.49-.03 2.64l.05 6.44-6.94-.69-5.3-.96.27-10.98-.3-7.17 6-.2c1.28.08 3.12.2 5.54.38l2.23-.05-1.88-3.26-4.91-6.09 4.33-2.31 6.61-3.1 2.65 4.48 4.37 8.08-4.42 1.57c-.33.06-.63.2-.9.43 1.82-.04 3.19-.1 4.12-.16 1.27-.09 3.22-.26 5.85-.54l-3.1-6.53-3.57-4.96 5.98-2.35 5.09-1.18 2.74 5.06 3.6 6.7-4.1 1.64-2.2 1.29c2.86-.28 5-.46 6.43-.55l3.3-4.35 4.42-9.58 5.8 1.04Zm-37.03 44.8 13.52-.44.88-1.09 3.05-4.35-5.94-.13-8.74.34-.11-5.6-.77-5.35 17.55-.77 7.35.1 2.63 3.58 2.85 6.29-4.57 6.53 10.39-.3 14.27-.04-.24 4.7-.03 6.69-12.3-.16-11.05-.1 1.67 4.74-.2 6.44-3.79 4.53-7.38 2.22-10.16-.79-2.58-.94-.1-5.44-1.41-4.26 6.37.78 4.77-.34 1.1-3.24-1.4-3.44-12.28.33-16.82.76-1.1-5.92.07-4.62 14.5-.7Z" class="cls-3"/><path d="m829.17 260.25 2.96.66 7.24.43 5.15.37.08-.79.3-5.23 7.78.78 4.36 1.15-.79 4.97 16.92 1.61 6.18 1.7 3.35 2.5-1.26 7.58-1.05 6.96-7.4-.88-4.27-1.36.8-6.62-7.49-1.47-14.85-1.41-11.11-.6 5.78 3.39 4.93 3.37-3.16 4.95-2.53 2.27-4.63-3.5-5.29-3.33 1.99-3.98 2.62-3.2-4.95-.28-.2 1.28-.63 5.63-6.06-.6-4.37-1.09 1-8.62 1.13-6.95 7.47.31Zm6.73 24.31 5 3.39-2.86 4.76-.95.84 6.43.64 1.52-2.23 1.96-5.2 1.29-5 .92-7.83 7.54 1.03 4.08 1.7-3.4 12.5-2.56 6.09 11.78 1.17 11.46 1.43-.52 5.21-1.1 4.58-14.72-2.05.88.6 7.3 5.48 4.81 3.87-4.75 5.07-4.67 1.99-5.87-5.49-7.03-6.1-4.56-3.41 1.94-2.9.48-.46-1.07-.11-6 5.31-9.25 4.56-10.98 3.08-3.55-5.61-.68-4.03 10.94-2.73 4.24-2.03-15.82-1.07-.42-3.72.47-5.5 6.84.1 8.15.67-2.28-1.67-5.54-3 1.81-3.79 2.66-3.55 6.08 3.41Z" class="cls-1"/><path d="m896.73 346.61-1.5-5.97 6.06-2.64 6.78-2.41 5.2-1.56 1.5 3.73 1.25 5.93-5.59 1.8-5.8 2.08-6.13 2.74-1.77-3.7Zm3.38-60.74 9.19-1.91 6.63-.58 2.8 2.5 1.93 3.68 1.18 16.88.1 1.2 2.87-4.92 3.4-7.15 4.04-12.6.94-5.13 8.33-.23 3.22.8.17-.02 7.86 8.11 8.57 8.19 7.68 6.33-3.03 5.63-5.05 4.73-4.73-4.46.83 7.72-14.69 2.05-8 1.73-1.75-4.64-.27-1.77-1.5 2.64-5.43-2.89-3.4-3.1.93 10.63.5-.08 2.9 1.46 2.64 2.7.37 3.57 2.05-1.86 4.15-2.18 3.96 6.8 4.08 5.94-2.35 2.68-5.2 2.68-4.4-5.8-1.73-2.31.6 5.68-1 11.1-2.2 3.6-5.21 2-6.64.57-1.24-4.2-2.6-4.1 4.6-.86 1.76-.96.63-2.08-.02-8.7-1-3.72-2.55-.3-6.39 1.05-7.82 1.79-4.38 1.26-1.77-3.7-.68-6.18.33-.14-.29-5.3-.63-7.57-1.22-8.6 5.9-.9 5.72.17.8 14.44.54 5.26 5.75-1.3 3.35-.68-3.56-.15-.5-10.1-1.37-14.18-3.03.46-6.48 1.07-7.8 1.96-2.02-5.38-.9-5.9 11.53-2.43Zm51.62 38.7 2.55 3.76 1.12-5.17.94-7.98 7.51.67 5.24 2.13-3.54 13.04-1.98 5.12 6.83-.95.84 7.2.1 4.72-8.76.73-8.84 1.34-11.07 2.02-9.22 2.26-1.25-3.09-1.47-7.44 9.57-2.23 11.36-2.4 1.84-.37-2.32-1.63 2.32-5.18-2.6 2.12-4.34 2.12-4.18-6.52-3.92-6.56 3.83-3.16 5.52-2.22 3.92 7.68Zm-12.62-17.9 8.06-1.4 6.24-.94-7.92-7.85-4.06-4.64-3.92 9.99-2.8 5.94 4.4-1.1Z" class="cls-3"/><path d="m971.32 90.76 7.13-1.7 7.68-1.7 3.73 1.39 1.9 9.62 3.3 16.83 1.8 5.67 2.35-1.85 3.17-3.13 6.3 8 2.77 3.57-5.59 5.65-7.44 7.28-4.76 4.92-5.74-4.47-4.52-3.97-3.85-16.92-2.91-14.15-2.83.19-5.2 1.92-2.5-6.29-2.1-8.47 7.3-2.4Zm-6.76-23.57 3.32-7.9 8.4 2.55 8.47 3.31 3.84 1.91-3.07 7.08-4.37 7.15-4.67-2.6-8.19-3.6-5.3-2.03 1.57-5.87Zm35.84-13.12c.42-.09 1.06-.25 1.93-.48s1.51-.43 1.91-.59a.3.3 0 0 1 .06-.23l6-1.33 27.68-6.13 11-1.66 3.63.96 4.27 18.27 5.24 25.66-6.19 1.48-10.44 2.2-.05-.21c-2.38.53-4.18.89-5.39 1.08l1.17 5.26 6.6-1.57 17.7-3.8 2.08 9.36.36 4.11-14.07 2.79 8.5 5.5 11.55 6.28-5.15 7.66-5.68 5.23-9.64-6.15-6.23-4.69 3.18 12.88-9.45 2.2-6.77.83-2.58-12.67-4.09 7.97-4.18 7.55-7.4-2.56-6.88-4.1 7.57-12.72 2.12-4.88-9.57 2.66-1.05-3.74-2.62-9.35 16.6-4.34a69.4 69.4 0 0 0 4.39-1.08l-1.12-5.05c-1.54.34-3.92.9-7.13 1.69s-5.58 1.38-7.11 1.8l-5.87 1.4-6.27-25.32-4.62-20.4 6-1.77Zm13.32 13.83.7 3.16 4.93-1.2-1.34-5.56-4.82 1.18.53 2.42Zm9.35 17.8-1-4.52c-2.17.48-3.78.87-4.82 1.17l1.2 4.38 4.62-1.03Zm15.21-25.55-5.3.95 1.2 5.47 5.35-1.29-1.25-5.13Zm3.9 16.58-5.48 1.2.95 4.32 5.48-1.2-.96-4.32Z" class="cls-1"/><path d="m1131.05 160.23 14.84 1.98.23-1.55.57-3.82-15.73-1.75.02-5 .82-7.08-2.92 3.22-7 5.18-6.12-6.41-2.17-1.8-.4 2.63-2.42 18.56-1.3 8.71-10.16-2.25-6.85-2.37 3.53-19.5-.97.84-8.61 7.74-5.8-7.7-1.61-6.35 7.63-7.77 8.53-8.85 4.29-4.97-2.9-.2-11.44-.24-.52-5.45 1.11-10.7 11.32.24 6.16.43.4-2.62.77-8.43-9.56 1.86-2.05-4.21-1.42-11.7 8.72-1.98 15.16-5.05 11.82-4.7 4.22 6.87 3.46 9.43-12.19 4.76-9.92 2.66 2.66 1 6.47 2.44-1.8 7.91-.53 2.73.12.02 13.6 1.3-.43 7.75-1.13 9.11-13.56-1.54-1.45-.1-.05.36 10.18 8.6 7.21 8.05-.87.96 9.67.6 5.75.74.48-5.66-4.31-.53-13.48-1.29.16-5.96 1.14-8.37 11.34.85 24.12 2.76 23.4 3.52-.42 6.9-2.2 8.08-21.3-3.56-1.1 5.7 18.73 2.8-1.11 8.26-1.75 5.96-18.23-2.98-.71 3.92-.1 1.45 11.12 1.55 14.89 2.48-1.31 8.71-1.63 5.98-8.39-1.86-11.08-1.79-27-3.93-18.93-2.35-.06-5.26.95-8.77 9.4.8Zm15.81-85.02 8.34 1.37 15.7 2 22.5 3.74 4.11 2.69-3.79 23.6-2.83 14.83-8.89-.97-9.73-1.83-10.63-1.59-7.78-1.05-.03.24-14.43-1.43-3.75-1.05.66-6.86 2.15-15.91 2.02-17.52 6.38-.26Zm29.35 21.61-9.74-1.82-10.42-1.32-.67 5.27-.45 5.42 9.16 1.62 10.71 1 1.4-10.17Z" class="cls-3"/><path d="m1275.97 133.86 3.82 2-1.9-10.01-16.42 2.36-22.3 4.28c-1.35.35-3.31.83-5.9 1.42l-5.8 1.32 2.24 16.8.91-2.16 2.84-4.79 5.99 4 1.05.83 1.16-5.5.4-8.3 7.76.95 5.23 2.22-2.48 12.22-1.92 6.9 3.5 3.34 4.14 4.41-4.36 7.15-3.74 3.75-4.04-4.34-.83 2.61-4.5 9.46-4.71-2.94-1.33-1.32 1.9 10.55.98 5.69-6.93 1.18-6.74.15-1.86-14.03-4.9-28.6-3.48-17.6-1.76-10.77 3.78-.37-.8-1.42 5.47-1.76 12.41-2.77 42.87-8.08 11.17-1 3.83 2.08 3 19.6 4.33 25.78 3.35 18.44 1.45 6.89-5.66 2.7-10.64 2.47-2.62-5.13-4.32-4.93 5.15-.88 2.06-1.36-1.35-9.46-.14-.8-2.75 4.22-4.43 4.05-5.6-5.44-1.65 4.22-4.57 8.55-4.9-1.9-5.61-3.43 5.07-12.02 1.28-4.24-7.53-5.02 1.9-6.54 2.72-5.96 6.47 4.1.62-5.4.36-9.67 9.26 1.25Zm-45.04 25.28 2.43 13.11 2.66-5.85.98-2.81-6.07-4.45Zm50.83 1.52 3 3.06a1389.2 1389.2 0 0 0-3.22-18.2l-1.13-6.02-1.9 10.2-1.7 6.6 4.95 4.36Z" class="cls-1"/><path d="m1339.12 41.04 8.78 1.27-.72 10.12-.06 7.29c2.16-.02 3.82-.08 4.99-.18l15.1-.15.1 9.44-.45 9.72-16.2-.25-20.63.47-18.2.71-.63-9.03-.35-9.04 14.69-1.08 2.83-.03-.03-2.97-.42-16.04 11.2-.25Zm-3.6 75.04 13.6-1.61-7.7-1.14 1.51-11.75 1.4-22.14 9.73.99 10.28 3.27-3.84 21.62-1.95 7.98 7.42-.88 1.18 10.91 1 6.88-35.02 4.24-19.54 2.48-.62-8.09-1.04-9.84 23.58-2.92Zm-11.93-33.6 8.5-.63 1.95 21.16 1.18 10.65-16.56 3.12-2.44-15.22-2.19-17.24 9.56-1.85Zm75.22-48.34 10.67 1.24-.92 17.28.07 6.74 2.02-.15 22.92-1.43.5 9.43-.19 9.18-17.8.03c-.81.1-2.05.18-3.71.24s-2.9.1-3.71.1l.06 6.61.1 10.39 22 .2 5.15 3.05.33 35.07-.12 16.19-9.98-.18-27.12-.28-12.4.12-7.56.48-8.23-.06-.57-4.18-.36-23.6-.65-25.62 9.17-.36 2.02-.02v-.27c1.88-.1 4.67-.18 8.36-.21l-.51-25.1-1.4-34.51 11.86-.38Zm15.39 93c.03-1.76.08-3.08.16-3.98l-.09-9.18-14.57-.4c-1.08.1-2.67.18-4.79.25s-3.7.1-4.78.11c.03 3.51.1 6.12.2 7.83.12 2.15.2 5.34.23 9.57l8.37.2 15.24-.42c-.01-.9 0-2.23.03-3.98Zm-351.32 78.11a6.73 6.73 0 0 1 5.56-7.73l46.52-7.59a6.73 6.73 0 0 1 7.73 5.56l7.59 46.52a6.73 6.73 0 0 1-5.56 7.73l-46.51 7.59a6.73 6.73 0 0 1-7.73-5.56l-7.6-46.52m10.51 1.7 6.51 39.87 13.29-2.17-1.08-6.65-6.65 1.09-4.34-26.58 6.65-1.09-1.09-6.64-13.29 2.17m38.65 27.8-6.64 1.08 1.08 6.65 13.29-2.17-6.5-39.87-13.3 2.17 1.09 6.65 6.64-1.09 4.34 26.58Z" class="cls-3"/><path d="m150.04 259.37-13.05 18 18 13.08 4-5.56-12.47-9.05 9.04-12.46-5.52-4.01m19.68-3.13-4.01 5.52 12.46 9.04-9.04 12.47 5.54 4.04 13.04-18.02-18-13.05m35.45 22.71-23 31.72-14.39-10.47-4 5.53 19.91 14.47 27.01-37.24-5.53-4Zm711.32-72.45c-3.45.57-5.81 3.85-5.25 7.3s-1.8 6.74-5.25 7.3l1.02 6.27c3.45-.56 6.74 1.8 7.3 5.25s3.84 5.82 7.3 5.25l6.27-1.02-1.03-6.27-6.27 1.02-.51-3.14a6.37 6.37 0 0 0-7.3-5.25 6.37 6.37 0 0 0 5.25-7.3l-.5-3.13 6.26-1.02-1.02-6.27m12.55-2.05c3.45-.56 6.73 1.8 7.3 5.25s3.84 5.81 7.29 5.25l1.02 6.27c-3.45.56-5.8 3.85-5.25 7.3s-1.8 6.73-5.25 7.3l-6.27 1.02-1.02-6.28 6.27-1.02-.51-3.14a6.37 6.37 0 0 1 5.25-7.3 6.37 6.37 0 0 1-7.3-5.24l-.5-3.14-6.28 1.02-1.03-6.27 6.28-1.02m36.03 3.78 6.14 37.64a6.33 6.33 0 0 1-5.25 7.3l-50.18 8.18a6.35 6.35 0 0 1-7.3-5.25l-1.53-9.4 6.27-1.03 1.54 9.4 50.18-8.18-6.14-37.64-9.31 1.52-1.03-6.27 9.32-1.52a6.33 6.33 0 0 1 7.3 5.25Z" class="cls-1"/><path d="m353.27 226.24 13.44-2.88-16.32-10.57 2.88 13.45m-20.78-13.45 19.56-4.19 17.8 11.53 6.29 29.33a5 5 0 0 1-3.84 5.94l-29.34 6.28a5 5 0 0 1-5.93-3.84l-8.38-39.11a4.98 4.98 0 0 1 3.84-5.94m7.36 32.94 11.1 7.18 2.74-4.19-6.92-4.47 4.48-6.92-4.21-2.7-7.19 11.1m27.28-5.84-11.1-7.19-2.73 4.2 6.92 4.47-4.48 6.91 4.2 2.7 7.2-11.1Z" class="cls-3"/><path d="M580.13 253.96a9.84 9.84 0 0 0 5.48 12.77 9.81 9.81 0 1 0-5.48-12.77m-1.15 22-6.52 3.79c-.6.32-1.33.2-1.8-.37l-6.92-8.82a1.4 1.4 0 0 1 .08-1.82l5.2-5.44a21.5 21.5 0 0 1-.82-5.42l-6.49-3.76a1.38 1.38 0 0 1-.61-1.7l4.16-10.44c.27-.67.96-1 1.64-.85l7.28 1.78a20.62 20.62 0 0 1 4.32-3.37v-7.56c0-.64.5-1.26 1.18-1.34l11.1-1.61a1.4 1.4 0 0 1 1.55.97l2.12 7.23 2.6.83 2.5 1.21 6.49-3.8a1.4 1.4 0 0 1 1.79.37l6.93 8.81c.48.54.42 1.34-.03 1.8l-5.25 5.47c.51 1.75.83 3.56.82 5.42l6.54 3.73c.55.35.83 1.07.56 1.74l-4.17 10.42c-.25.64-.96 1-1.58.84l-7.33-1.76a20.04 20.04 0 0 1-4.32 3.36l.05 7.54c-.03.72-.5 1.27-1.23 1.36l-11.1 1.62a1.4 1.4 0 0 1-1.55-.97l-2.09-7.22-2.64-.84-2.46-1.2m53.5-40.86a6.32 6.32 0 1 0 8.2-3.55 6.32 6.32 0 0 0-8.2 3.55m-.76 14.12-4.2 2.51a.96.96 0 0 1-1.12-.31l-4.48-5.68a.86.86 0 0 1 .03-1.15l3.34-3.5-.53-3.41-4.15-2.48a.9.9 0 0 1-.38-1.1l2.67-6.7a.91.91 0 0 1 1.05-.58l4.67 1.18 2.77-2.18.02-4.92c-.01-.39.3-.74.76-.81l7.15-1.04a.92.92 0 0 1 1 .62l1.35 4.64 1.68.54 1.6.77 4.16-2.44a.92.92 0 0 1 1.16.25l4.47 5.67c.28.37.27.84-.02 1.11l-3.35 3.54.5 3.53 4.18 2.36c.38.24.55.7.37 1.14l-2.68 6.7a.9.9 0 0 1-1.03.54l-4.72-1.06-2.73 2.1v4.84c0 .43-.32.82-.77.86l-7.15 1.03a.96.96 0 0 1-1.03-.55l-1.31-4.7-1.69-.55-1.6-.77Z" class="cls-1"/></svg>